<svg width="282" height="180" viewBox="0 0 282 180" fill="none" xmlns="http://www.w3.org/2000/svg">
<path d="M14.5268 179.991C6.55988 180.275 0.0373535 174.011 0.0373535 166.025V13.8755C0.0373535 5.88919 6.55988 -0.328233 14.5268 0.0134341L267.492 10.8634C273.754 11.1319 278.82 17.0602 278.82 24.0809V157.818C278.82 164.837 273.754 170.73 267.492 170.954L14.5268 179.991Z" fill="url(#paint0_linear_397_28262)"/>
<path d="M267.492 15.0142L14.5268 4.67968C9.30692 4.466 5.05722 8.66541 5.05722 14.0601V165.877C5.05722 171.271 9.30578 175.501 14.5268 175.325L267.492 166.803C271.604 166.665 274.926 162.693 274.926 157.933V23.9387C274.926 19.1771 271.604 15.1822 267.492 15.0142Z" fill="url(#paint1_linear_397_28262)"/>
<path d="M267.423 15.0142L14.4582 4.67968C9.23836 4.466 4.98866 8.66541 4.98866 14.0601V165.877C4.98866 171.271 9.23721 175.501 14.4582 175.325L267.423 166.803C271.536 166.665 274.857 162.693 274.857 157.933V23.9387C274.857 19.1771 271.536 15.1822 267.423 15.0142Z" fill="url(#paint2_linear_397_28262)"/>
<mask id="mask0_397_28262" style="mask-type:luminance" maskUnits="userSpaceOnUse" x="4" y="4" width="271" height="172">
<path d="M267.423 15.0142L14.4582 4.67968C9.23836 4.466 4.98866 8.66541 4.98866 14.0601V165.877C4.98866 171.271 9.23721 175.501 14.4582 175.325L267.423 166.803C271.536 166.665 274.857 162.693 274.857 157.933V23.9387C274.857 19.1771 271.536 15.1822 267.423 15.0142Z" fill="white"/>
</mask>
<g mask="url(#mask0_397_28262)">
<path d="M-55.5297 221.414L-56.3239 220.884L117.285 4.70703L117.975 5.23496L-55.5297 221.414Z" fill="url(#paint3_linear_397_28262)"/>
<path d="M30.9714 201.931L30.1258 201.568L129.046 2.98047L129.816 3.37241L30.9714 201.931Z" fill="url(#paint4_linear_397_28262)"/>
<path d="M112.782 191.198L111.91 191.084L140.829 2.43359L141.663 2.60157L112.782 191.198Z" fill="url(#paint5_linear_397_28262)"/>
<path d="M189.193 188.602L152.602 3.02586L153.422 2.92188L190.008 188.434L189.193 188.602Z" fill="url(#paint6_linear_397_28262)"/>
<path d="M262.116 193.395L164.298 4.69319L165.032 4.36523L262.807 193.01L262.116 193.395Z" fill="url(#paint7_linear_397_28262)"/>
<path d="M330.806 204.881L175.828 7.40096L176.465 6.93359L331.373 204.371L330.806 204.881Z" fill="url(#paint8_linear_397_28262)"/>
<path d="M313.488 51.5762L-30.4658 44.2744L-30.4692 43.3945L313.454 50.8049L313.488 51.5762Z" fill="url(#paint9_linear_397_28262)"/>
<path d="M312.129 19.6984L-30.5743 7.88865L-30.5778 7.01562L312.096 18.9328L312.129 19.6984Z" fill="url(#paint10_linear_397_28262)"/>
<path d="M315.237 92.6316L-30.3264 91.1929L-30.3287 90.3027L315.204 91.8534L315.237 92.6316Z" fill="url(#paint11_linear_397_28262)"/>
<path d="M317.004 134.076L-30.1847 138.619L-30.1881 137.72L316.97 133.291L317.004 134.076Z" fill="url(#paint12_linear_397_28262)"/>
<path d="M318.787 175.92L-30.0418 186.569L-30.0441 185.659L318.753 175.127L318.787 175.92Z" fill="url(#paint13_linear_397_28262)"/>
<path d="M277.712 144.197L209.711 145.351L193.246 129.92L156.998 130.312L138.814 130.508L100.994 130.917L83.8657 147.484L4.59905 148.829L1.92285 182.847L139.89 178.8L158.167 178.264L281.229 174.654L277.712 144.197Z" fill="url(#paint14_linear_397_28262)"/>
<path opacity="0.5" d="M277.712 144.197L209.727 145.35L193.265 129.92L157.027 130.312L138.847 130.508L101.035 130.916L83.9103 147.484L4.66419 148.828L1.98799 182.846L139.923 178.8L158.195 178.263L281.229 174.654L277.712 144.197Z" fill="url(#paint15_linear_397_28262)"/>
<path d="M128.471 149.076C128.58 154.244 124.392 158.529 119.096 158.644C113.779 158.758 109.373 154.626 109.275 149.42C109.177 144.219 113.415 139.947 118.722 139.87C124.006 139.795 128.362 143.913 128.471 149.076Z" fill="url(#paint16_linear_397_28262)"/>
<path d="M190.194 147.969C190.336 153.013 186.375 157.194 181.33 157.303C176.264 157.411 172.036 153.377 171.904 148.296C171.771 143.221 175.779 139.053 180.834 138.979C185.87 138.909 190.052 142.931 190.194 147.969Z" fill="url(#paint17_linear_397_28262)"/>
<path d="M140.443 150.906C140.473 152.232 139.408 153.328 138.062 153.354C136.714 153.38 135.598 152.326 135.569 150.998C135.541 149.671 136.609 148.575 137.955 148.551C139.3 148.527 140.413 149.582 140.443 150.906Z" fill="url(#paint18_linear_397_28262)"/>
<path d="M151.98 150.691C152.011 152.01 150.957 153.101 149.624 153.127C148.289 153.153 147.18 152.103 147.151 150.781C147.12 149.46 148.178 148.37 149.512 148.346C150.844 148.322 151.949 149.372 151.98 150.691Z" fill="url(#paint19_linear_397_28262)"/>
<path d="M163.414 150.478C163.447 151.79 162.402 152.876 161.081 152.902C159.758 152.929 158.659 151.883 158.627 150.567C158.595 149.251 159.642 148.167 160.964 148.143C162.283 148.119 163.38 149.165 163.414 150.478Z" fill="url(#paint20_linear_397_28262)"/>
<path d="M164.337 143.927C164.349 144.447 163.884 144.877 163.361 144.886L136.275 145.332C135.74 145.342 135.247 144.922 135.236 144.395L135.231 144.184C135.22 143.658 135.668 143.224 136.203 143.216L163.297 142.791C163.82 142.783 164.319 143.198 164.332 143.718L164.337 143.927Z" fill="url(#paint21_linear_397_28262)"/>
<path d="M89.9358 158.405C89.9735 160.673 88.1029 162.557 85.7535 162.61L23.8307 164.02C21.3648 164.076 19.3468 162.232 19.3273 159.902C19.3068 157.573 21.2916 155.646 23.7542 155.598L85.621 154.384C87.9681 154.337 89.8981 156.138 89.9358 158.405Z" fill="url(#paint22_linear_397_28262)"/>
<path d="M223.745 152.744C223.777 153.735 223.02 154.555 222.048 154.576L221.826 154.579C220.852 154.6 219.917 153.813 219.885 152.821L219.881 152.718C219.85 151.726 220.738 150.907 221.712 150.888L221.868 150.885C222.841 150.867 223.709 151.652 223.741 152.643L223.745 152.744Z" fill="url(#paint23_linear_397_28262)"/>
<path d="M232.323 152.58C232.355 153.567 231.524 154.383 230.559 154.403L230.365 154.408C229.399 154.428 228.495 153.645 228.463 152.656L228.459 152.553C228.427 151.565 229.241 150.747 230.208 150.727L230.41 150.725C231.376 150.707 232.286 151.491 232.319 152.478L232.323 152.58Z" fill="url(#paint24_linear_397_28262)"/>
<path d="M240.471 152.495C240.505 153.479 239.744 154.206 238.783 154.206H238.738C237.777 154.206 237.072 153.55 237.039 152.565L237.035 152.419C237.002 151.434 237.713 150.601 238.673 150.583L238.721 150.571C239.68 150.552 240.433 151.372 240.466 152.356L240.471 152.495Z" fill="url(#paint25_linear_397_28262)"/>
<path d="M251.127 162.513L248.98 162.563L248.557 150.376L250.701 150.336L251.127 162.513Z" fill="url(#paint26_linear_397_28262)"/>
<path d="M255.421 162.393L253.704 162.443L253.274 150.28L254.989 150.24L255.421 162.393Z" fill="url(#paint27_linear_397_28262)"/>
<path d="M260.145 162.284L257.998 162.334L257.564 150.194L259.709 150.154L260.145 162.284Z" fill="url(#paint28_linear_397_28262)"/>
<path d="M264.87 162.171L262.722 162.222L262.282 150.104L264.427 150.064L264.87 162.171Z" fill="url(#paint29_linear_397_28262)"/>
<path d="M269.165 162.063L267.447 162.114L267.001 150.02L268.718 149.979L269.165 162.063Z" fill="url(#paint30_linear_397_28262)"/>
<path opacity="0.5" d="M52.8152 38.5432C52.9192 46.79 45.879 53.3342 37.0391 53.1446C28.1398 52.9537 20.8231 46.0198 20.7488 37.6747C20.6745 29.3456 27.8472 22.8402 36.7169 23.1304C45.5271 23.4184 52.7112 30.3112 52.8152 38.5432Z" fill="url(#paint31_linear_397_28262)"/>
<path d="M53.7705 81.1023L17.9618 80.7081L17.8726 70.2559L46.3373 70.6798L53.7705 81.1023Z" fill="url(#paint32_linear_397_28262)"/>
<path d="M54.0265 101.376L18.1366 101.251L18.0475 90.75L46.5772 90.9603L54.0265 101.376Z" fill="url(#paint33_linear_397_28262)"/>
</g>
<path opacity="0.7" d="M231.03 42.4626C232.922 42.4626 234.455 40.9293 234.455 39.0379C234.455 37.1466 232.922 35.6133 231.03 35.6133C229.139 35.6133 227.606 37.1466 227.606 39.0379C227.606 40.9293 229.139 42.4626 231.03 42.4626Z" fill="url(#paint34_linear_397_28262)"/>
<path opacity="0.7" d="M13.616 121.842C15.5074 121.842 17.0407 120.308 17.0407 118.417C17.0407 116.525 15.5074 114.992 13.616 114.992C11.7246 114.992 10.1914 116.525 10.1914 118.417C10.1914 120.308 11.7246 121.842 13.616 121.842Z" fill="url(#paint35_linear_397_28262)"/>
<path opacity="0.7" d="M241.609 33.287C242.726 33.287 243.631 32.382 243.631 31.2656C243.631 30.1492 242.726 29.2441 241.609 29.2441C240.493 29.2441 239.588 30.1492 239.588 31.2656C239.588 32.382 240.493 33.287 241.609 33.287Z" fill="url(#paint36_linear_397_28262)"/>
<path opacity="0.7" d="M264.036 99.4804C265.152 99.4804 266.058 98.5753 266.058 97.4589C266.058 96.3425 265.152 95.4375 264.036 95.4375C262.92 95.4375 262.015 96.3425 262.015 97.4589C262.015 98.5753 262.92 99.4804 264.036 99.4804Z" fill="url(#paint37_linear_397_28262)"/>
<path opacity="0.7" d="M78.3887 27.1327C79.5052 27.1327 80.4102 26.2277 80.4102 25.1113C80.4102 23.9949 79.5052 23.0898 78.3887 23.0898C77.2723 23.0898 76.3673 23.9949 76.3673 25.1113C76.3673 26.2277 77.2723 27.1327 78.3887 27.1327Z" fill="url(#paint38_linear_397_28262)"/>
<path opacity="0.7" d="M62.551 106.894C63.6674 106.894 64.5724 105.989 64.5724 104.873C64.5724 103.757 63.6674 102.852 62.551 102.852C61.4345 102.852 60.5295 103.757 60.5295 104.873C60.5295 105.989 61.4345 106.894 62.551 106.894Z" fill="url(#paint39_linear_397_28262)"/>
<path opacity="0.7" d="M48.0547 125.124C49.5523 125.124 50.7663 123.91 50.7663 122.413C50.7663 120.915 49.5523 119.701 48.0547 119.701C46.5571 119.701 45.343 120.915 45.343 122.413C45.343 123.91 46.5571 125.124 48.0547 125.124Z" fill="url(#paint40_linear_397_28262)"/>
<path d="M17.6692 179.991C9.70231 180.275 3.17978 174.011 3.17978 166.025V13.8755C3.17978 5.88919 9.70231 -0.328233 17.6692 0.0134341L270.634 10.8634C276.896 11.1319 281.963 17.0602 281.963 24.0809V157.818C281.963 164.837 276.896 170.73 270.634 170.954L17.6692 179.991Z" fill="url(#paint41_linear_397_28262)"/>
<path d="M270.635 15.0142L17.6692 4.67968C12.4493 4.466 8.19962 8.66541 8.19962 14.0601V165.877C8.19962 171.271 12.4482 175.501 17.6692 175.325L270.634 166.803C274.747 166.665 278.068 162.693 278.068 157.933V23.9387C278.07 19.1771 274.748 15.1822 270.635 15.0142Z" fill="url(#paint42_linear_397_28262)"/>
<mask id="mask1_397_28262" style="mask-type:luminance" maskUnits="userSpaceOnUse" x="8" y="4" width="270" height="172">
<path d="M270.567 15.0142L17.6006 4.67968C12.3808 4.466 8.13106 8.66541 8.13106 14.0601V165.877C8.13106 171.271 12.3796 175.501 17.6006 175.325L270.565 166.803C274.678 166.665 278 162.693 278 157.933V23.9387C278 19.1771 274.679 15.1822 270.567 15.0142Z" fill="white"/>
</mask>
<g mask="url(#mask1_397_28262)">
<path d="M-52.3863 221.414L-53.1816 220.884L120.427 4.70703L121.119 5.23496L-52.3863 221.414Z" fill="white"/>
<path d="M34.1137 201.931L33.2681 201.568L132.188 2.98047L132.959 3.37241L34.1137 201.931Z" fill="white"/>
<path d="M115.925 191.198L115.053 191.084L143.972 2.43359L144.806 2.60157L115.925 191.198Z" fill="white"/>
<path d="M192.335 188.602L155.745 3.02586L156.565 2.92188L193.15 188.434L192.335 188.602Z" fill="white"/>
<path d="M265.259 193.395L167.441 4.69319L168.175 4.36523L265.949 193.01L265.259 193.395Z" fill="white"/>
<path d="M333.95 204.881L178.971 7.40096L179.608 6.93359L334.516 204.371L333.95 204.881Z" fill="white"/>
<path d="M316.63 51.5762L-27.3235 44.2744L-27.3258 43.3945L316.598 50.8049L316.63 51.5762Z" fill="white"/>
<path d="M315.271 19.6984L-27.432 7.88865L-27.4343 7.01562L315.239 18.9328L315.271 19.6984Z" fill="white"/>
<path d="M318.38 92.6316L-27.1841 91.1929L-27.1863 90.3027L318.347 91.8534L318.38 92.6316Z" fill="white"/>
<path d="M320.146 134.076L-27.0424 138.619L-27.0446 137.72L320.113 133.291L320.146 134.076Z" fill="white"/>
<path d="M321.93 175.92L-26.8995 186.569L-26.9018 185.659L321.895 175.127L321.93 175.92Z" fill="white"/>
<path d="M280.854 144.197L212.855 145.351L196.388 129.92L160.142 130.312L141.957 130.508L104.137 130.917L87.0081 147.484L7.74251 148.829L5.06517 182.847L143.033 178.8L161.31 178.264L284.371 174.654L280.854 144.197Z" fill="#132547"/>
<path d="M131.614 149.076C131.723 154.244 127.535 158.529 122.24 158.644C116.923 158.758 112.516 154.626 112.418 149.42C112.32 144.219 116.558 139.947 121.865 139.87C127.149 139.795 131.505 143.913 131.614 149.076Z" fill="url(#paint43_linear_397_28262)"/>
<path d="M193.336 147.969C193.478 153.013 189.517 157.194 184.472 157.303C179.407 157.411 175.179 153.377 175.046 148.296C174.913 143.221 178.921 139.053 183.976 138.979C189.012 138.909 193.194 142.931 193.336 147.969Z" fill="url(#paint44_linear_397_28262)"/>
<path d="M143.586 150.906C143.616 152.232 142.551 153.328 141.205 153.354C139.858 153.38 138.741 152.326 138.713 150.998C138.684 149.671 139.753 148.575 141.099 148.551C142.444 148.527 143.557 149.582 143.586 150.906Z" fill="url(#paint45_linear_397_28262)"/>
<path d="M155.122 150.691C155.153 152.01 154.099 153.101 152.766 153.127C151.431 153.153 150.323 152.103 150.293 150.781C150.262 149.46 151.32 148.37 152.654 148.346C153.986 148.322 155.091 149.372 155.122 150.691Z" fill="url(#paint46_linear_397_28262)"/>
<path d="M166.556 150.478C166.589 151.79 165.545 152.876 164.224 152.902C162.9 152.929 161.801 151.883 161.769 150.567C161.737 149.251 162.784 148.167 164.106 148.143C165.427 148.119 166.523 149.165 166.556 150.478Z" fill="url(#paint47_linear_397_28262)"/>
<path d="M167.479 143.927C167.492 144.447 167.027 144.877 166.503 144.886L139.417 145.332C138.882 145.342 138.389 144.922 138.378 144.395L138.373 144.184C138.362 143.658 138.81 143.224 139.345 143.216L166.439 142.791C166.963 142.783 167.461 143.198 167.475 143.718L167.479 143.927Z" fill="url(#paint48_linear_397_28262)"/>
<path d="M93.0791 158.405C93.1169 160.673 91.2463 162.557 88.8969 162.61L26.9741 164.02C24.5081 164.076 22.4901 162.232 22.4707 159.902C22.4501 157.573 24.435 155.646 26.8975 155.598L88.7643 154.384C91.1103 154.337 93.0414 156.138 93.0791 158.405Z" fill="url(#paint49_linear_397_28262)"/>
<path d="M226.888 152.744C226.92 153.735 226.164 154.555 225.191 154.576L224.969 154.579C223.996 154.6 223.06 153.813 223.028 152.821L223.024 152.718C222.994 151.726 223.882 150.907 224.855 150.888L225.012 150.885C225.984 150.867 226.853 151.652 226.885 152.643L226.888 152.744Z" fill="url(#paint50_linear_397_28262)"/>
<path d="M235.465 152.58C235.497 153.567 234.666 154.383 233.701 154.403L233.508 154.408C232.541 154.428 231.637 153.645 231.605 152.656L231.602 152.553C231.57 151.565 232.383 150.747 233.35 150.727L233.552 150.725C234.518 150.707 235.428 151.491 235.462 152.478L235.465 152.58Z" fill="url(#paint51_linear_397_28262)"/>
<path d="M243.614 152.495C243.647 153.479 242.886 154.206 241.925 154.206H241.88C240.919 154.206 240.214 153.55 240.181 152.565L240.178 152.419C240.144 151.434 240.855 150.601 241.815 150.583L241.863 150.571C242.823 150.552 243.575 151.372 243.609 152.356L243.614 152.495Z" fill="url(#paint52_linear_397_28262)"/>
<path d="M254.27 162.513L252.123 162.563L251.699 150.376L253.844 150.336L254.27 162.513Z" fill="url(#paint53_linear_397_28262)"/>
<path d="M258.564 162.393L256.846 162.443L256.418 150.28L258.133 150.24L258.564 162.393Z" fill="url(#paint54_linear_397_28262)"/>
<path d="M263.289 162.284L261.14 162.334L260.706 150.194L262.851 150.154L263.289 162.284Z" fill="url(#paint55_linear_397_28262)"/>
<path d="M268.013 162.171L265.865 162.222L265.425 150.104L267.57 150.064L268.013 162.171Z" fill="url(#paint56_linear_397_28262)"/>
<path d="M272.308 162.063L270.59 162.114L270.145 150.02L271.86 149.979L272.308 162.063Z" fill="url(#paint57_linear_397_28262)"/>
<path opacity="0.5" d="M55.9587 38.5432C56.0626 46.79 49.0225 53.3342 40.1826 53.1446C31.2832 52.9537 23.9665 46.0198 23.8923 37.6747C23.818 29.3456 30.9907 22.8402 39.8603 23.1304C48.6705 23.4184 55.8547 30.3112 55.9587 38.5432Z" fill="url(#paint58_linear_397_28262)"/>
<path d="M56.9128 81.1023L21.1041 80.7081L21.015 70.2559L49.4807 70.6798L56.9128 81.1023Z" fill="white"/>
<path d="M57.1699 103.341L21.2801 103.217L21.1898 92.7148L49.7195 92.9251L57.1699 103.341Z" fill="white"/>
</g>
<path opacity="0.7" d="M234.174 42.4626C236.065 42.4626 237.599 40.9293 237.599 39.0379C237.599 37.1466 236.065 35.6133 234.174 35.6133C232.283 35.6133 230.749 37.1466 230.749 39.0379C230.749 40.9293 232.283 42.4626 234.174 42.4626Z" fill="white"/>
<path opacity="0.7" d="M16.7596 121.842C18.651 121.842 20.1842 120.308 20.1842 118.417C20.1842 116.525 18.651 114.992 16.7596 114.992C14.8682 114.992 13.3349 116.525 13.3349 118.417C13.3349 120.308 14.8682 121.842 16.7596 121.842Z" fill="white"/>
<path opacity="0.7" d="M244.753 33.287C245.869 33.287 246.774 32.382 246.774 31.2656C246.774 30.1492 245.869 29.2441 244.753 29.2441C243.637 29.2441 242.732 30.1492 242.732 31.2656C242.732 32.382 243.637 33.287 244.753 33.287Z" fill="white"/>
<path opacity="0.7" d="M269.181 97.7793C269.36 96.6773 268.611 95.6389 267.509 95.4601C266.407 95.2812 265.369 96.0296 265.19 97.1316C265.011 98.2336 265.76 99.2719 266.862 99.4508C267.964 99.6296 269.002 98.8813 269.181 97.7793Z" fill="white"/>
<path opacity="0.7" d="M83.505 25.5829C83.7615 24.4964 83.0887 23.4077 82.0022 23.1511C80.9157 22.8946 79.827 23.5673 79.5704 24.6538C79.3139 25.7403 79.9867 26.8291 81.0732 27.0856C82.1597 27.3422 83.2484 26.6694 83.505 25.5829Z" fill="white"/>
<path opacity="0.7" d="M65.6933 106.894C66.8098 106.894 67.7148 105.989 67.7148 104.873C67.7148 103.757 66.8098 102.852 65.6933 102.852C64.5769 102.852 63.6719 103.757 63.6719 104.873C63.6719 105.989 64.5769 106.894 65.6933 106.894Z" fill="white"/>
<path opacity="0.7" d="M51.1982 125.124C52.6958 125.124 53.9098 123.91 53.9098 122.413C53.9098 120.915 52.6958 119.701 51.1982 119.701C49.7006 119.701 48.4866 120.915 48.4866 122.413C48.4866 123.91 49.7006 125.124 51.1982 125.124Z" fill="white"/>
<path d="M257.42 76.6482C260.836 76.6482 263.605 73.8789 263.605 70.4628C263.605 67.0467 260.836 64.2773 257.42 64.2773C254.004 64.2773 251.234 67.0467 251.234 70.4628C251.234 73.8789 254.004 76.6482 257.42 76.6482Z" fill="url(#paint59_linear_397_28262)"/>
<path d="M137.916 62.5621L164.392 72.4167C165.61 72.8704 166.269 73.9662 165.979 74.9238L157.389 103.204C157.012 104.445 155.623 105.05 154.222 104.516L138.801 104.588C137.533 104.593 136.319 104.133 135.379 103.29L123.864 92.9613C122.483 92.4357 121.842 91.0678 122.394 89.9057L135.003 63.3814C135.429 62.481 136.713 62.1142 137.916 62.5621Z" fill="url(#paint60_linear_397_28262)"/>
<path d="M139.445 64.4771L162.809 73.5501L165.523 42.0208C165.645 40.5992 164.858 39.2109 163.563 38.523C163.547 38.5138 163.533 38.4898 163.533 38.4875L163.551 38.4407L161.511 37.6659L161.494 37.7128C160.075 37.3506 158.491 37.8751 157.659 39.0395L139.445 64.4771Z" fill="url(#paint61_linear_397_28262)"/>
<path opacity="0.3" d="M139.445 64.4771L151.187 69.0364C156.112 60.7359 155.925 47.4029 160.204 44.4753C162.178 43.1235 163.13 40.6552 163.563 38.523C163.547 38.5138 163.533 38.4898 163.533 38.4875L163.551 38.4407L161.511 37.6659L161.494 37.7128C160.075 37.3506 158.491 37.8751 157.659 39.0395L139.445 64.4771Z" fill="url(#paint62_linear_397_28262)"/>
<path d="M139.874 65.9864L95.8972 49.5898L90.3951 57.2391C90.3951 57.2391 107.382 78.3858 123.406 82.359C139.291 86.299 139.658 72.0347 139.874 65.9864Z" fill="url(#paint63_linear_397_28262)"/>
<path d="M96.6548 48.5371L91.2784 56.0115C91.2784 56.0115 108.214 76.9252 124.129 80.8789C128.413 81.9427 131.59 81.7142 133.924 80.5784C140.043 77.6062 140.248 69.1514 140.39 64.8297L96.6548 48.5371Z" fill="url(#paint64_linear_397_28262)"/>
<path opacity="0.3" d="M95.2584 50.4766L91.2784 56.0095C91.2784 56.0095 108.214 76.9232 124.129 80.8769C128.413 81.9408 131.62 81.6494 133.951 80.5135L137.295 70.179C137.295 70.179 131.676 66.0435 125.178 69.0511C118.393 72.1924 110.949 67.3062 104.969 59.1131C101.945 54.9719 98.8373 51.7907 95.2584 50.4766Z" fill="url(#paint65_linear_397_28262)"/>
<path d="M94.967 45.6741C94.5911 46.1826 94.8276 46.7996 95.4984 47.0487C96.1691 47.299 97.0147 47.0842 97.385 46.5734L105.337 35.5749C105.663 35.1247 105.417 34.5751 104.791 34.3442C104.165 34.1134 103.39 34.2871 103.06 34.735L94.967 45.6741Z" fill="url(#paint66_linear_397_28262)"/>
<path d="M86.7876 51.2875C80.3908 59.6921 76.8347 67.8841 79.2949 69.0382C79.3235 69.0508 79.352 69.0645 79.3817 69.0759C82.0145 70.0735 89.5083 63.2562 95.5978 54.5831C101.183 46.6288 103.546 39.968 101.284 39.1304C101.259 39.1212 101.231 39.1132 101.205 39.1041L101.204 39.103C101.114 39.0698 101.008 39.0561 100.9 39.0481C98.3883 38.8253 92.4291 43.8771 86.7876 51.2875Z" fill="url(#paint67_linear_397_28262)"/>
<path d="M88.4194 49.9278C88.1223 50.3198 88.2285 50.8249 88.6993 51.0008L94.671 53.2325C95.143 53.4085 95.7863 53.1834 96.0674 52.7846C96.3474 52.3881 96.2251 51.8819 95.7578 51.707L89.8329 49.4948C89.3644 49.3199 88.7142 49.537 88.4194 49.9278Z" fill="url(#paint68_linear_397_28262)"/>
<path opacity="0.3" d="M86.7624 51.2769C80.3645 59.6803 76.9627 67.9306 79.2401 69.0162L101.158 39.0866L101.204 39.1038C101.111 39.0695 100.991 39.0569 100.887 39.0443C98.3757 38.8192 92.4039 43.8665 86.7624 51.2769Z" fill="url(#paint69_linear_397_28262)"/>
<path d="M162.891 74.5684L208.252 91.4803L207.316 101.104C207.316 101.104 179.419 105.666 164.381 97.8565C149.692 90.2268 158.992 79.2706 162.891 74.5684Z" fill="url(#paint70_linear_397_28262)"/>
<path d="M208.381 90.1577L207.468 99.5564C207.468 99.5564 179.773 103.991 164.833 96.254C160.848 94.1903 158.597 91.9026 157.591 89.4949C154.955 83.2055 160.482 76.7081 163.279 73.3555L208.381 90.1577Z" fill="url(#paint71_linear_397_28262)"/>
<path opacity="0.3" d="M208.143 92.5967L207.467 99.5568C207.467 99.5568 179.772 103.992 164.832 96.2544C160.847 94.1907 158.616 91.8356 157.611 89.4302L162.026 79.4316C162.026 79.4316 169.103 80.027 172.049 86.6238C175.139 93.5428 184.219 94.8375 194.515 92.6332C199.752 91.5122 204.391 91.174 208.143 92.5967Z" fill="url(#paint72_linear_397_28262)"/>
<path d="M210.736 74.4312C210.789 73.8667 211.364 73.6084 212.024 73.8507C212.682 74.0929 213.179 74.7477 213.133 75.3145L211.999 89.2074C211.946 89.8542 211.328 90.1684 210.619 89.9044C209.911 89.6405 209.386 88.9023 209.446 88.2578L210.736 74.4312Z" fill="url(#paint73_linear_397_28262)"/>
<path d="M214.382 99.0143C213.642 109.878 210.77 118.634 207.998 117.813C207.966 117.803 207.934 117.793 207.903 117.781C205.11 116.723 203.887 106.337 205.067 95.5291C206.147 85.639 208.886 78.928 211.266 79.8078C211.294 79.8181 211.32 79.8307 211.347 79.841L211.35 79.8421C211.444 79.8775 211.538 79.9381 211.631 80.0044C213.787 81.5276 215.034 89.4579 214.382 99.0143Z" fill="url(#paint74_linear_397_28262)"/>
<path d="M214.026 96.8511C213.99 97.3562 213.553 97.6716 213.055 97.4853L206.741 95.1256C206.244 94.9394 205.89 94.3292 205.942 93.8321C205.995 93.3373 206.443 93.0322 206.937 93.2162L213.198 95.5542C213.692 95.7381 214.061 96.3495 214.026 96.8511Z" fill="url(#paint75_linear_397_28262)"/>
<path opacity="0.3" d="M214.388 99.0171C213.648 109.882 210.91 118.687 208.012 117.819L211.358 79.8472L211.347 79.8438C211.444 79.8792 211.539 79.9477 211.631 80.0072C213.79 81.5292 215.039 89.4607 214.388 99.0171Z" fill="url(#paint76_linear_397_28262)"/>
<path d="M143.061 89.9292C145.141 90.7154 147.668 89.0276 150.486 85.0305C152.897 81.6115 155.18 76.9573 156.915 72.0186C158.571 67.3027 159.54 62.8553 159.694 59.4192C159.863 55.6734 159.06 53.4966 157.314 52.8532C155.569 52.2111 153.503 53.3286 151.113 56.2482C148.924 58.9233 146.666 62.8793 144.741 67.4809C142.725 72.2985 141.309 77.2624 140.813 81.3898C140.234 86.22 140.983 89.1431 143.061 89.9292Z" fill="url(#paint77_linear_397_28262)"/>
<path d="M145.662 67.8232C141.49 77.92 140.313 87.8147 143.422 88.9905C146.536 90.1675 152.318 81.9858 155.991 71.6741C159.334 62.2868 159.694 54.4867 157.059 53.5154C154.428 52.5453 149.46 58.6302 145.662 67.8232Z" fill="url(#paint78_linear_397_28262)"/>
<path d="M139.127 61.4464L165.435 71.229C166.645 71.6793 167.304 72.7637 167.02 73.7087L158.632 101.616C158.264 102.839 156.891 103.433 155.499 102.903L140.221 102.945C138.965 102.947 137.761 102.491 136.824 101.657L125.36 91.4457C123.99 90.9246 123.347 89.5739 123.888 88.4266L136.239 62.2486C136.66 61.3618 137.932 61.0019 139.127 61.4464Z" fill="url(#paint79_linear_397_28262)"/>
<path d="M121.835 88.3979C119.313 93.6406 117.468 98.8627 116.509 103.2C116.474 103.358 116.441 103.515 116.409 103.669C116.542 104.487 117.997 105.635 120.041 106.479C120.152 106.524 120.264 106.569 120.377 106.612C122.787 107.538 125.038 107.682 125.613 106.988C125.623 106.975 125.634 106.961 125.645 106.945C128.358 103.23 131.135 98.2513 133.431 92.8018C137.627 82.8455 138.863 74.4832 136.858 72.2332C136.653 72.0001 136.411 71.8299 136.135 71.7259C133.194 70.6255 126.983 77.6942 121.835 88.3979Z" fill="url(#paint80_linear_397_28262)"/>
<path d="M116.457 103.291C116.402 103.406 116.388 103.534 116.409 103.671C116.549 104.534 118.158 105.762 120.377 106.614C122.787 107.54 125.038 107.684 125.613 106.99C125.623 106.977 125.634 106.963 125.645 106.947C125.668 106.915 125.688 106.878 125.704 106.841C126.071 105.985 124.307 104.505 121.767 103.531C119.325 102.596 117.032 102.458 116.509 103.201C116.489 103.23 116.471 103.258 116.457 103.291Z" fill="url(#paint81_linear_397_28262)"/>
<path opacity="0.3" d="M121.835 88.3969C119.313 93.6396 117.468 98.8618 116.509 103.199C116.474 103.357 116.441 103.514 116.409 103.668C116.542 104.486 117.997 105.635 120.041 106.478C119.966 106.037 119.872 105.6 119.759 105.168C118.043 98.6252 127.629 85.4602 133.514 78.5891C135.9 75.8044 136.705 73.7133 136.858 72.2335C136.653 72.0003 136.411 71.8301 136.135 71.7261C133.194 70.6245 126.983 77.6933 121.835 88.3969Z" fill="url(#paint82_linear_397_28262)"/>
<path d="M122.561 105.164L119.764 104.169C118.276 103.64 116.54 104.06 115.362 105.244L114.232 106.379C113.812 106.799 113.931 107.466 114.46 107.655L123.913 111.024C124.443 111.212 125.023 110.793 125.023 110.223V108.683C125.025 107.08 124.05 105.694 122.561 105.164Z" fill="url(#paint83_linear_397_28262)"/>
<path d="M124.825 110.906C124.406 111.955 121.594 111.931 118.548 110.845C115.504 109.759 113.416 108.037 113.879 107.005C114.338 105.982 117.136 106.024 120.136 107.092C123.138 108.16 125.239 109.865 124.825 110.906Z" fill="url(#paint84_linear_397_28262)"/>
<path d="M123.509 110.439C123.188 111.234 121.051 111.213 118.741 110.39C116.431 109.566 114.843 108.258 115.19 107.475C115.536 106.694 117.664 106.725 119.948 107.539C122.233 108.351 123.829 109.648 123.509 110.439Z" fill="url(#paint85_linear_397_28262)"/>
<path d="M148.257 98.431C146.336 103.942 145.07 109.424 144.579 113.972C144.561 114.137 144.544 114.301 144.529 114.463C144.743 115.317 146.278 116.5 148.355 117.356C148.468 117.402 148.581 117.448 148.695 117.492C151.139 118.431 153.345 118.553 153.835 117.82C153.844 117.805 153.852 117.791 153.863 117.773C156.125 113.855 158.32 108.615 160 102.89C163.066 92.4353 163.412 83.6868 161.231 81.3625C161.007 81.1214 160.756 80.9466 160.476 80.8426C157.5 79.7273 152.176 87.1846 148.257 98.431Z" fill="url(#paint86_linear_397_28262)"/>
<path d="M144.537 114.066C144.496 114.187 144.495 114.32 144.529 114.462C144.753 115.363 146.448 116.628 148.695 117.491C151.139 118.43 153.345 118.552 153.835 117.819C153.844 117.804 153.852 117.79 153.863 117.773C153.882 117.738 153.897 117.701 153.91 117.662C154.179 116.761 152.309 115.237 149.735 114.251C147.26 113.302 145.014 113.188 144.579 113.971C144.562 114 144.549 114.031 144.537 114.066Z" fill="url(#paint87_linear_397_28262)"/>
<path opacity="0.3" d="M148.257 98.431C146.336 103.942 145.07 109.424 144.579 113.972C144.561 114.137 144.544 114.301 144.529 114.463C144.743 115.317 146.278 116.5 148.355 117.356C148.236 116.896 148.101 116.441 147.947 115.99C145.607 109.169 153.599 95.2909 158.626 88.0405C160.663 85.1026 161.233 82.9097 161.231 81.3625C161.007 81.1214 160.756 80.9466 160.476 80.8426C157.5 79.7273 152.176 87.1846 148.257 98.431Z" fill="url(#paint88_linear_397_28262)"/>
<path d="M150.676 115.95L147.849 114.944C146.345 114.409 144.697 114.871 143.67 116.123L142.685 117.324C142.319 117.77 142.503 118.467 143.038 118.657L152.592 122.063C153.128 122.254 153.65 121.808 153.592 121.211L153.435 119.601C153.272 117.923 152.181 116.486 150.676 115.95Z" fill="url(#paint89_linear_397_28262)"/>
<path d="M153.469 121.929C153.169 123.032 150.426 123.042 147.346 121.944C144.269 120.846 142.06 119.071 142.405 117.986C142.748 116.91 145.479 116.918 148.51 117.998C151.544 119.078 153.766 120.834 153.469 121.929Z" fill="url(#paint90_linear_397_28262)"/>
<path d="M152.14 121.455C151.908 122.291 149.824 122.298 147.488 121.463C145.153 120.63 143.473 119.283 143.732 118.458C143.989 117.638 146.065 117.643 148.373 118.465C150.683 119.288 152.369 120.625 152.14 121.455Z" fill="url(#paint91_linear_397_28262)"/>
<path d="M138.826 65.7915C138.52 66.4714 138.931 67.2736 139.749 67.5787L162.159 75.9421C162.985 76.2506 163.837 75.917 164.061 75.2005L164.096 75.0908C164.317 74.38 163.834 73.5607 163.018 73.2568L140.885 65.0111C140.077 64.7105 139.178 65.0111 138.874 65.6853L138.826 65.7915Z" fill="url(#paint92_linear_397_28262)"/>
<path d="M150.694 119.59C150.694 119.59 152.919 127.097 151.817 131.42C151.403 130.232 150.83 129.783 150.83 129.783C150.83 129.783 142.444 148.26 139.393 151.216C140.563 133.575 142.896 126.11 142.896 126.11L139.217 128.476C139.217 128.476 142.586 119.042 146.396 117.947C146.396 117.946 149.748 118.837 150.694 119.59Z" fill="url(#paint93_linear_397_28262)"/>
<path d="M121.95 108.462C121.95 108.462 124.174 115.968 123.073 120.291C122.658 119.104 122.086 118.654 122.086 118.654C122.086 118.654 113.699 137.131 110.648 140.087C111.818 122.446 114.152 114.981 114.152 114.981L110.472 117.347C110.472 117.347 113.841 107.913 117.652 106.818C117.653 106.818 121.005 107.709 121.95 108.462Z" fill="url(#paint94_linear_397_28262)"/>
<defs>
<linearGradient id="paint0_linear_397_28262" x1="39.1564" y1="-227.182" x2="155.817" y2="147.703" gradientUnits="userSpaceOnUse">
<stop stop-color="#444B8C"/>
<stop offset="0.9964" stop-color="#26264F"/>
</linearGradient>
<linearGradient id="paint1_linear_397_28262" x1="115.607" y1="16.539" x2="227.955" y2="377.567" gradientUnits="userSpaceOnUse">
<stop stop-color="#444B8C"/>
<stop offset="0.9964" stop-color="#26264F"/>
</linearGradient>
<linearGradient id="paint2_linear_397_28262" x1="4.98897" y1="90.0012" x2="274.857" y2="90.0012" gradientUnits="userSpaceOnUse">
<stop stop-color="#444B8C"/>
<stop offset="0.9964" stop-color="#26264F"/>
</linearGradient>
<linearGradient id="paint3_linear_397_28262" x1="-56.3239" y1="113.06" x2="117.976" y2="113.06" gradientUnits="userSpaceOnUse">
<stop stop-color="#444B8C"/>
<stop offset="0.9964" stop-color="#26264F"/>
</linearGradient>
<linearGradient id="paint4_linear_397_28262" x1="30.1255" y1="102.455" x2="129.816" y2="102.455" gradientUnits="userSpaceOnUse">
<stop stop-color="#444B8C"/>
<stop offset="0.9964" stop-color="#26264F"/>
</linearGradient>
<linearGradient id="paint5_linear_397_28262" x1="111.91" y1="96.8159" x2="141.663" y2="96.8159" gradientUnits="userSpaceOnUse">
<stop stop-color="#444B8C"/>
<stop offset="0.9964" stop-color="#26264F"/>
</linearGradient>
<linearGradient id="paint6_linear_397_28262" x1="152.602" y1="95.7621" x2="190.007" y2="95.7621" gradientUnits="userSpaceOnUse">
<stop stop-color="#444B8C"/>
<stop offset="0.9964" stop-color="#26264F"/>
</linearGradient>
<linearGradient id="paint7_linear_397_28262" x1="164.299" y1="98.88" x2="262.806" y2="98.88" gradientUnits="userSpaceOnUse">
<stop stop-color="#444B8C"/>
<stop offset="0.9964" stop-color="#26264F"/>
</linearGradient>
<linearGradient id="paint8_linear_397_28262" x1="175.828" y1="105.907" x2="331.373" y2="105.907" gradientUnits="userSpaceOnUse">
<stop stop-color="#444B8C"/>
<stop offset="0.9964" stop-color="#26264F"/>
</linearGradient>
<linearGradient id="paint9_linear_397_28262" x1="-30.4689" y1="47.4854" x2="313.487" y2="47.4854" gradientUnits="userSpaceOnUse">
<stop stop-color="#444B8C"/>
<stop offset="0.9964" stop-color="#26264F"/>
</linearGradient>
<linearGradient id="paint10_linear_397_28262" x1="-30.5774" y1="13.3569" x2="312.129" y2="13.3569" gradientUnits="userSpaceOnUse">
<stop stop-color="#444B8C"/>
<stop offset="0.9964" stop-color="#26264F"/>
</linearGradient>
<linearGradient id="paint11_linear_397_28262" x1="-30.329" y1="91.4675" x2="315.237" y2="91.4675" gradientUnits="userSpaceOnUse">
<stop stop-color="#444B8C"/>
<stop offset="0.9964" stop-color="#26264F"/>
</linearGradient>
<linearGradient id="paint12_linear_397_28262" x1="-30.1876" y1="135.955" x2="317.004" y2="135.955" gradientUnits="userSpaceOnUse">
<stop stop-color="#444B8C"/>
<stop offset="0.9964" stop-color="#26264F"/>
</linearGradient>
<linearGradient id="paint13_linear_397_28262" x1="-30.0446" y1="180.848" x2="318.787" y2="180.848" gradientUnits="userSpaceOnUse">
<stop stop-color="#444B8C"/>
<stop offset="0.9964" stop-color="#26264F"/>
</linearGradient>
<linearGradient id="paint14_linear_397_28262" x1="1.92274" y1="156.384" x2="281.229" y2="156.384" gradientUnits="userSpaceOnUse">
<stop stop-color="#444B8C"/>
<stop offset="0.9964" stop-color="#26264F"/>
</linearGradient>
<linearGradient id="paint15_linear_397_28262" x1="236.387" y1="-221.253" x2="87.6208" y2="388.508" gradientUnits="userSpaceOnUse">
<stop stop-color="#444B8C"/>
<stop offset="0.9964" stop-color="#26264F"/>
</linearGradient>
<linearGradient id="paint16_linear_397_28262" x1="136.051" y1="78.8473" x2="108.872" y2="190.251" gradientUnits="userSpaceOnUse">
<stop stop-color="#444B8C"/>
<stop offset="0.9964" stop-color="#26264F"/>
</linearGradient>
<linearGradient id="paint17_linear_397_28262" x1="197.76" y1="79.6451" x2="171.319" y2="188.022" gradientUnits="userSpaceOnUse">
<stop stop-color="#444B8C"/>
<stop offset="0.9964" stop-color="#26264F"/>
</linearGradient>
<linearGradient id="paint18_linear_397_28262" x1="142.397" y1="132.956" x2="135.451" y2="161.43" gradientUnits="userSpaceOnUse">
<stop stop-color="#444B8C"/>
<stop offset="0.9964" stop-color="#26264F"/>
</linearGradient>
<linearGradient id="paint19_linear_397_28262" x1="153.933" y1="132.832" x2="147.022" y2="161.161" gradientUnits="userSpaceOnUse">
<stop stop-color="#444B8C"/>
<stop offset="0.9964" stop-color="#26264F"/>
</linearGradient>
<linearGradient id="paint20_linear_397_28262" x1="165.366" y1="132.709" x2="158.489" y2="160.894" gradientUnits="userSpaceOnUse">
<stop stop-color="#444B8C"/>
<stop offset="0.9964" stop-color="#26264F"/>
</linearGradient>
<linearGradient id="paint21_linear_397_28262" x1="157.95" y1="110.582" x2="145.026" y2="163.553" gradientUnits="userSpaceOnUse">
<stop stop-color="#444B8C"/>
<stop offset="0.9964" stop-color="#26264F"/>
</linearGradient>
<linearGradient id="paint22_linear_397_28262" x1="76.8472" y1="68.1122" x2="41.6914" y2="212.208" gradientUnits="userSpaceOnUse">
<stop stop-color="#444B8C"/>
<stop offset="0.9964" stop-color="#26264F"/>
</linearGradient>
<linearGradient id="paint23_linear_397_28262" x1="225.218" y1="138.796" x2="219.841" y2="160.836" gradientUnits="userSpaceOnUse">
<stop stop-color="#444B8C"/>
<stop offset="0.9964" stop-color="#26264F"/>
</linearGradient>
<linearGradient id="paint24_linear_397_28262" x1="233.777" y1="138.683" x2="228.418" y2="160.65" gradientUnits="userSpaceOnUse">
<stop stop-color="#444B8C"/>
<stop offset="0.9964" stop-color="#26264F"/>
</linearGradient>
<linearGradient id="paint25_linear_397_28262" x1="242.09" y1="138.773" x2="236.83" y2="160.33" gradientUnits="userSpaceOnUse">
<stop stop-color="#444B8C"/>
<stop offset="0.9964" stop-color="#26264F"/>
</linearGradient>
<linearGradient id="paint26_linear_397_28262" x1="261.067" y1="110.434" x2="243.304" y2="183.24" gradientUnits="userSpaceOnUse">
<stop stop-color="#444B8C"/>
<stop offset="0.9964" stop-color="#26264F"/>
</linearGradient>
<linearGradient id="paint27_linear_397_28262" x1="265.457" y1="110.8" x2="247.877" y2="182.856" gradientUnits="userSpaceOnUse">
<stop stop-color="#444B8C"/>
<stop offset="0.9964" stop-color="#26264F"/>
</linearGradient>
<linearGradient id="paint28_linear_397_28262" x1="270.036" y1="110.408" x2="252.343" y2="182.93" gradientUnits="userSpaceOnUse">
<stop stop-color="#444B8C"/>
<stop offset="0.9964" stop-color="#26264F"/>
</linearGradient>
<linearGradient id="paint29_linear_397_28262" x1="274.736" y1="110.397" x2="257.077" y2="182.777" gradientUnits="userSpaceOnUse">
<stop stop-color="#444B8C"/>
<stop offset="0.9964" stop-color="#26264F"/>
</linearGradient>
<linearGradient id="paint30_linear_397_28262" x1="279.13" y1="110.764" x2="261.65" y2="182.409" gradientUnits="userSpaceOnUse">
<stop stop-color="#444B8C"/>
<stop offset="0.9964" stop-color="#26264F"/>
</linearGradient>
<linearGradient id="paint31_linear_397_28262" x1="64.0702" y1="-73.715" x2="20.894" y2="103.255" gradientUnits="userSpaceOnUse">
<stop stop-color="#444B8C"/>
<stop offset="0.9964" stop-color="#26264F"/>
</linearGradient>
<linearGradient id="paint32_linear_397_28262" x1="50.6596" y1="14.8601" x2="26.8504" y2="112.449" gradientUnits="userSpaceOnUse">
<stop stop-color="#444B8C"/>
<stop offset="0.9964" stop-color="#26264F"/>
</linearGradient>
<linearGradient id="paint33_linear_397_28262" x1="51.1164" y1="34.2553" x2="26.9148" y2="133.452" gradientUnits="userSpaceOnUse">
<stop stop-color="#444B8C"/>
<stop offset="0.9964" stop-color="#26264F"/>
</linearGradient>
<linearGradient id="paint34_linear_397_28262" x1="227.606" y1="39.0374" x2="234.455" y2="39.0374" gradientUnits="userSpaceOnUse">
<stop stop-color="#444B8C"/>
<stop offset="0.9964" stop-color="#26264F"/>
</linearGradient>
<linearGradient id="paint35_linear_397_28262" x1="10.1919" y1="118.417" x2="17.0404" y2="118.417" gradientUnits="userSpaceOnUse">
<stop stop-color="#444B8C"/>
<stop offset="0.9964" stop-color="#26264F"/>
</linearGradient>
<linearGradient id="paint36_linear_397_28262" x1="239.589" y1="31.2654" x2="243.631" y2="31.2654" gradientUnits="userSpaceOnUse">
<stop stop-color="#444B8C"/>
<stop offset="0.9964" stop-color="#26264F"/>
</linearGradient>
<linearGradient id="paint37_linear_397_28262" x1="262.015" y1="97.4591" x2="266.057" y2="97.4591" gradientUnits="userSpaceOnUse">
<stop stop-color="#444B8C"/>
<stop offset="0.9964" stop-color="#26264F"/>
</linearGradient>
<linearGradient id="paint38_linear_397_28262" x1="76.3681" y1="25.1109" x2="80.4099" y2="25.1109" gradientUnits="userSpaceOnUse">
<stop stop-color="#444B8C"/>
<stop offset="0.9964" stop-color="#26264F"/>
</linearGradient>
<linearGradient id="paint39_linear_397_28262" x1="60.5298" y1="104.874" x2="64.5716" y2="104.874" gradientUnits="userSpaceOnUse">
<stop stop-color="#444B8C"/>
<stop offset="0.9964" stop-color="#26264F"/>
</linearGradient>
<linearGradient id="paint40_linear_397_28262" x1="45.3434" y1="122.412" x2="50.7665" y2="122.412" gradientUnits="userSpaceOnUse">
<stop stop-color="#444B8C"/>
<stop offset="0.9964" stop-color="#26264F"/>
</linearGradient>
<linearGradient id="paint41_linear_397_28262" x1="142.608" y1="180.44" x2="142.608" y2="-0.407987" gradientUnits="userSpaceOnUse">
<stop stop-color="#00C6FF"/>
<stop offset="0.489583" stop-color="#0072FF"/>
<stop offset="1" stop-color="#0072FF"/>
</linearGradient>
<linearGradient id="paint42_linear_397_28262" x1="143.169" y1="175.747" x2="143.169" y2="4.28506" gradientUnits="userSpaceOnUse">
<stop stop-color="#0072FF"/>
<stop offset="1" stop-color="#00C6FF"/>
</linearGradient>
<linearGradient id="paint43_linear_397_28262" x1="122.019" y1="158.692" x2="122.019" y2="139.827" gradientUnits="userSpaceOnUse">
<stop stop-color="#0072FF"/>
<stop offset="1" stop-color="#00C6FF"/>
</linearGradient>
<linearGradient id="paint44_linear_397_28262" x1="184.194" y1="157.35" x2="184.194" y2="138.937" gradientUnits="userSpaceOnUse">
<stop stop-color="#0072FF"/>
<stop offset="1" stop-color="#00C6FF"/>
</linearGradient>
<linearGradient id="paint45_linear_397_28262" x1="141.15" y1="153.366" x2="141.15" y2="148.54" gradientUnits="userSpaceOnUse">
<stop stop-color="#0072FF"/>
<stop offset="1" stop-color="#00C6FF"/>
</linearGradient>
<linearGradient id="paint46_linear_397_28262" x1="152.708" y1="153.139" x2="152.708" y2="148.335" gradientUnits="userSpaceOnUse">
<stop stop-color="#0072FF"/>
<stop offset="1" stop-color="#00C6FF"/>
</linearGradient>
<linearGradient id="paint47_linear_397_28262" x1="164.163" y1="152.914" x2="164.163" y2="148.132" gradientUnits="userSpaceOnUse">
<stop stop-color="#0072FF"/>
<stop offset="1" stop-color="#00C6FF"/>
</linearGradient>
<linearGradient id="paint48_linear_397_28262" x1="152.93" y1="145.339" x2="152.93" y2="142.785" gradientUnits="userSpaceOnUse">
<stop stop-color="#0072FF"/>
<stop offset="1" stop-color="#00C6FF"/>
</linearGradient>
<linearGradient id="paint49_linear_397_28262" x1="57.7843" y1="164.045" x2="57.7843" y2="154.361" gradientUnits="userSpaceOnUse">
<stop stop-color="#0072FF"/>
<stop offset="1" stop-color="#00C6FF"/>
</linearGradient>
<linearGradient id="paint50_linear_397_28262" x1="224.957" y1="154.589" x2="224.957" y2="150.876" gradientUnits="userSpaceOnUse">
<stop stop-color="#0072FF"/>
<stop offset="1" stop-color="#00C6FF"/>
</linearGradient>
<linearGradient id="paint51_linear_397_28262" x1="233.534" y1="154.417" x2="233.534" y2="150.716" gradientUnits="userSpaceOnUse">
<stop stop-color="#0072FF"/>
<stop offset="1" stop-color="#00C6FF"/>
</linearGradient>
<linearGradient id="paint52_linear_397_28262" x1="241.896" y1="154.214" x2="241.896" y2="150.562" gradientUnits="userSpaceOnUse">
<stop stop-color="#0072FF"/>
<stop offset="1" stop-color="#00C6FF"/>
</linearGradient>
<linearGradient id="paint53_linear_397_28262" x1="252.985" y1="162.593" x2="252.985" y2="150.308" gradientUnits="userSpaceOnUse">
<stop stop-color="#0072FF"/>
<stop offset="1" stop-color="#00C6FF"/>
</linearGradient>
<linearGradient id="paint54_linear_397_28262" x1="257.491" y1="162.473" x2="257.491" y2="150.213" gradientUnits="userSpaceOnUse">
<stop stop-color="#0072FF"/>
<stop offset="1" stop-color="#00C6FF"/>
</linearGradient>
<linearGradient id="paint55_linear_397_28262" x1="261.998" y1="162.364" x2="261.998" y2="150.127" gradientUnits="userSpaceOnUse">
<stop stop-color="#0072FF"/>
<stop offset="1" stop-color="#00C6FF"/>
</linearGradient>
<linearGradient id="paint56_linear_397_28262" x1="266.719" y1="162.251" x2="266.719" y2="150.037" gradientUnits="userSpaceOnUse">
<stop stop-color="#0072FF"/>
<stop offset="1" stop-color="#00C6FF"/>
</linearGradient>
<linearGradient id="paint57_linear_397_28262" x1="271.227" y1="162.144" x2="271.227" y2="149.951" gradientUnits="userSpaceOnUse">
<stop stop-color="#0072FF"/>
<stop offset="1" stop-color="#00C6FF"/>
</linearGradient>
<linearGradient id="paint58_linear_397_28262" x1="67.2131" y1="-73.715" x2="24.0369" y2="103.255" gradientUnits="userSpaceOnUse">
<stop stop-color="#AA80F9"/>
<stop offset="0.9964" stop-color="#6165D7"/>
</linearGradient>
<linearGradient id="paint59_linear_397_28262" x1="260.56" y1="66.0369" x2="255.67" y2="72.9295" gradientUnits="userSpaceOnUse">
<stop stop-color="#FFC444"/>
<stop offset="0.9964" stop-color="#F36F56"/>
</linearGradient>
<linearGradient id="paint60_linear_397_28262" x1="139.187" y1="61.7505" x2="149.664" y2="106.099" gradientUnits="userSpaceOnUse">
<stop stop-color="#444B8C"/>
<stop offset="0.9964" stop-color="#26264F"/>
</linearGradient>
<linearGradient id="paint61_linear_397_28262" x1="147.794" y1="39.2973" x2="152.619" y2="74.93" gradientUnits="userSpaceOnUse">
<stop stop-color="#FFC444"/>
<stop offset="0.9964" stop-color="#F36F56"/>
</linearGradient>
<linearGradient id="paint62_linear_397_28262" x1="147.296" y1="39.3649" x2="151.311" y2="69.0194" gradientUnits="userSpaceOnUse">
<stop stop-color="#FFC444"/>
<stop offset="0.9964" stop-color="#F36F56"/>
</linearGradient>
<linearGradient id="paint63_linear_397_28262" x1="111.427" y1="45.9215" x2="120.713" y2="85.2285" gradientUnits="userSpaceOnUse">
<stop stop-color="#444B8C"/>
<stop offset="0.9964" stop-color="#26264F"/>
</linearGradient>
<linearGradient id="paint64_linear_397_28262" x1="112.161" y1="44.8738" x2="121.351" y2="83.772" gradientUnits="userSpaceOnUse">
<stop stop-color="#FFC444"/>
<stop offset="0.9964" stop-color="#F36F56"/>
</linearGradient>
<linearGradient id="paint65_linear_397_28262" x1="135.643" y1="76.3388" x2="90.4606" y2="58.0278" gradientUnits="userSpaceOnUse">
<stop stop-color="#FFC444"/>
<stop offset="0.9964" stop-color="#F36F56"/>
</linearGradient>
<linearGradient id="paint66_linear_397_28262" x1="98.8996" y1="35.4464" x2="101.383" y2="45.9564" gradientUnits="userSpaceOnUse">
<stop stop-color="#AA80F9"/>
<stop offset="0.9964" stop-color="#6165D7"/>
</linearGradient>
<linearGradient id="paint67_linear_397_28262" x1="87.491" y1="42.103" x2="93.1657" y2="66.1231" gradientUnits="userSpaceOnUse">
<stop stop-color="#FFC444"/>
<stop offset="0.9964" stop-color="#F36F56"/>
</linearGradient>
<linearGradient id="paint68_linear_397_28262" x1="91.6485" y1="48.8839" x2="92.8213" y2="53.8482" gradientUnits="userSpaceOnUse">
<stop offset="0.00359712" stop-color="#EBEFF2"/>
<stop offset="1" stop-color="white"/>
</linearGradient>
<linearGradient id="paint69_linear_397_28262" x1="94.4484" y1="55.7724" x2="84.2975" y2="51.6585" gradientUnits="userSpaceOnUse">
<stop stop-color="#FFC444"/>
<stop offset="0.9964" stop-color="#F36F56"/>
</linearGradient>
<linearGradient id="paint70_linear_397_28262" x1="199.884" y1="78.3884" x2="163.671" y2="101.535" gradientUnits="userSpaceOnUse">
<stop stop-color="#444B8C"/>
<stop offset="0.9964" stop-color="#26264F"/>
</linearGradient>
<linearGradient id="paint71_linear_397_28262" x1="200.027" y1="77.0891" x2="164.158" y2="100.016" gradientUnits="userSpaceOnUse">
<stop stop-color="#FFC444"/>
<stop offset="0.9964" stop-color="#F36F56"/>
</linearGradient>
<linearGradient id="paint72_linear_397_28262" x1="159.924" y1="83.7236" x2="206.272" y2="102.506" gradientUnits="userSpaceOnUse">
<stop stop-color="#FFC444"/>
<stop offset="0.9964" stop-color="#F36F56"/>
</linearGradient>
<linearGradient id="paint73_linear_397_28262" x1="215.775" y1="79.0397" x2="206.87" y2="84.7315" gradientUnits="userSpaceOnUse">
<stop stop-color="#AA80F9"/>
<stop offset="0.9964" stop-color="#6165D7"/>
</linearGradient>
<linearGradient id="paint74_linear_397_28262" x1="219.723" y1="92.333" x2="199.456" y2="105.287" gradientUnits="userSpaceOnUse">
<stop stop-color="#FFC444"/>
<stop offset="0.9964" stop-color="#F36F56"/>
</linearGradient>
<linearGradient id="paint75_linear_397_28262" x1="212.37" y1="93.8297" x2="207.595" y2="96.8812" gradientUnits="userSpaceOnUse">
<stop offset="0.00359712" stop-color="#EBEFF2"/>
<stop offset="1" stop-color="white"/>
</linearGradient>
<linearGradient id="paint76_linear_397_28262" x1="204.503" y1="96.7321" x2="216.599" y2="101.634" gradientUnits="userSpaceOnUse">
<stop stop-color="#FFC444"/>
<stop offset="0.9964" stop-color="#F36F56"/>
</linearGradient>
<linearGradient id="paint77_linear_397_28262" x1="172.195" y1="-53.4779" x2="149.836" y2="73.3119" gradientUnits="userSpaceOnUse">
<stop offset="0.00359712" stop-color="#EBEFF2"/>
<stop offset="1" stop-color="white"/>
</linearGradient>
<linearGradient id="paint78_linear_397_28262" x1="171.288" y1="-48.1038" x2="149.916" y2="73.0902" gradientUnits="userSpaceOnUse">
<stop stop-color="#444B8C"/>
<stop offset="0.9964" stop-color="#26264F"/>
</linearGradient>
<linearGradient id="paint79_linear_397_28262" x1="140.508" y1="60.6104" x2="150.877" y2="104.501" gradientUnits="userSpaceOnUse">
<stop stop-color="#FFC444"/>
<stop offset="0.9964" stop-color="#F36F56"/>
</linearGradient>
<linearGradient id="paint80_linear_397_28262" x1="148.443" y1="-30.2783" x2="127.061" y2="90.9675" gradientUnits="userSpaceOnUse">
<stop stop-color="#FFC444"/>
<stop offset="0.9964" stop-color="#F36F56"/>
</linearGradient>
<linearGradient id="paint81_linear_397_28262" x1="121.752" y1="101.24" x2="119.588" y2="113.512" gradientUnits="userSpaceOnUse">
<stop stop-color="#FFC444"/>
<stop offset="0.9964" stop-color="#F36F56"/>
</linearGradient>
<linearGradient id="paint82_linear_397_28262" x1="133.112" y1="51.2543" x2="111.919" y2="171.436" gradientUnits="userSpaceOnUse">
<stop stop-color="#FFC444"/>
<stop offset="0.9964" stop-color="#F36F56"/>
</linearGradient>
<linearGradient id="paint83_linear_397_28262" x1="114.681" y1="104.964" x2="125.521" y2="109.055" gradientUnits="userSpaceOnUse">
<stop stop-color="#AA80F9"/>
<stop offset="0.9964" stop-color="#6165D7"/>
</linearGradient>
<linearGradient id="paint84_linear_397_28262" x1="120.965" y1="106.975" x2="114.962" y2="114.373" gradientUnits="userSpaceOnUse">
<stop stop-color="#AA80F9"/>
<stop offset="0.9964" stop-color="#6165D7"/>
</linearGradient>
<linearGradient id="paint85_linear_397_28262" x1="120.578" y1="107.448" x2="116.015" y2="113.07" gradientUnits="userSpaceOnUse">
<stop stop-color="#444B8C"/>
<stop offset="0.9964" stop-color="#26264F"/>
</linearGradient>
<linearGradient id="paint86_linear_397_28262" x1="175.747" y1="-23.5559" x2="153.767" y2="101.084" gradientUnits="userSpaceOnUse">
<stop stop-color="#FFC444"/>
<stop offset="0.9964" stop-color="#F36F56"/>
</linearGradient>
<linearGradient id="paint87_linear_397_28262" x1="149.913" y1="111.943" x2="147.695" y2="124.524" gradientUnits="userSpaceOnUse">
<stop stop-color="#FFC444"/>
<stop offset="0.9964" stop-color="#F36F56"/>
</linearGradient>
<linearGradient id="paint88_linear_397_28262" x1="159.512" y1="60.1718" x2="137.72" y2="183.744" gradientUnits="userSpaceOnUse">
<stop stop-color="#FFC444"/>
<stop offset="0.9964" stop-color="#F36F56"/>
</linearGradient>
<linearGradient id="paint89_linear_397_28262" x1="143.171" y1="115.912" x2="154.13" y2="120.048" gradientUnits="userSpaceOnUse">
<stop stop-color="#AA80F9"/>
<stop offset="0.9964" stop-color="#6165D7"/>
</linearGradient>
<linearGradient id="paint90_linear_397_28262" x1="149.536" y1="117.996" x2="143.592" y2="125.321" gradientUnits="userSpaceOnUse">
<stop stop-color="#AA80F9"/>
<stop offset="0.9964" stop-color="#6165D7"/>
</linearGradient>
<linearGradient id="paint91_linear_397_28262" x1="149.151" y1="118.464" x2="144.634" y2="124.031" gradientUnits="userSpaceOnUse">
<stop stop-color="#444B8C"/>
<stop offset="0.9964" stop-color="#26264F"/>
</linearGradient>
<linearGradient id="paint92_linear_397_28262" x1="149.582" y1="62.6396" x2="153.292" y2="78.3428" gradientUnits="userSpaceOnUse">
<stop offset="0.00359712" stop-color="#EBEFF2"/>
<stop offset="1" stop-color="white"/>
</linearGradient>
<linearGradient id="paint93_linear_397_28262" x1="137.691" y1="130.62" x2="145.521" y2="135.708" gradientUnits="userSpaceOnUse">
<stop stop-color="#FF9085"/>
<stop offset="1" stop-color="#FB6FBB"/>
</linearGradient>
<linearGradient id="paint94_linear_397_28262" x1="108.947" y1="119.492" x2="116.778" y2="124.579" gradientUnits="userSpaceOnUse">
<stop stop-color="#FF9085"/>
<stop offset="1" stop-color="#FB6FBB"/>
</linearGradient>
</defs>
</svg>
