<svg xmlns="http://www.w3.org/2000/svg" width="286" height="180" fill="none"><path fill="url(#a)" d="M272.465 82.117h-55.03v83.881h55.03v-83.88Z"/><path fill="#666" fill-rule="evenodd" d="M244.923 158.83c11.836 0 21.454-9.62 21.454-21.454 0-11.839-9.618-21.454-21.454-21.454-11.782 0-21.457 9.615-21.457 21.454.002 11.834 9.675 21.454 21.457 21.454Z" clip-rule="evenodd"/><path fill="#fff" fill-rule="evenodd" d="M244.923 156.382c10.469 0 19.005-8.537 19.005-19.006 0-10.473-8.536-19.009-19.005-19.009-10.473 0-19.009 8.536-19.009 19.009 0 10.469 8.536 19.006 19.009 19.006Z" clip-rule="evenodd"/><path fill="#666" fill-rule="evenodd" d="M244.923 145.171c4.324 0 7.794-3.527 7.794-7.794 0-4.27-3.47-7.742-7.794-7.742-4.27 0-7.742 3.472-7.742 7.742.002 4.267 3.475 7.794 7.742 7.794Z" clip-rule="evenodd"/><path fill="#fff" fill-rule="evenodd" d="M244.923 112.28a11.827 11.827 0 0 0 11.836-11.836 11.828 11.828 0 0 0-11.836-11.837c-6.491 0-11.839 5.291-11.839 11.837 0 6.542 5.351 11.836 11.839 11.836ZM225.405 110.571a4.325 4.325 0 1 0-.003-8.651 4.325 4.325 0 0 0 .003 8.651ZM264.498 110.571a4.327 4.327 0 0 0 0-8.651 4.323 4.323 0 0 0-4.324 4.327 4.322 4.322 0 0 0 4.324 4.324Z" clip-rule="evenodd"/><path fill="url(#b)" d="M79.377 82.117h-55.03v83.881h55.03v-83.88Z"/><path fill="#666" fill-rule="evenodd" d="M51.89 158.83c11.778 0 21.456-9.62 21.456-21.454 0-11.839-9.675-21.454-21.457-21.454-11.836 0-21.509 9.615-21.509 21.454 0 11.834 9.673 21.454 21.51 21.454Z" clip-rule="evenodd"/><path fill="#fff" fill-rule="evenodd" d="M51.89 156.382c10.414 0 18.95-8.537 18.95-19.006 0-10.473-8.536-19.009-18.95-19.009-10.47 0-19.006 8.536-19.006 19.009 0 10.469 8.536 19.006 19.006 19.006Z" clip-rule="evenodd"/><path fill="#666" fill-rule="evenodd" d="M51.89 145.171c4.269 0 7.742-3.527 7.742-7.794 0-4.27-3.473-7.742-7.742-7.742-4.325 0-7.794 3.472-7.794 7.742 0 4.267 3.47 7.794 7.794 7.794Z" clip-rule="evenodd"/><path fill="#fff" fill-rule="evenodd" d="M51.89 112.28c6.487 0 11.836-5.291 11.836-11.836 0-6.546-5.352-11.837-11.837-11.837a11.827 11.827 0 0 0-11.836 11.837c0 6.542 5.294 11.836 11.837 11.836ZM32.314 110.571a4.324 4.324 0 0 0 4.324-4.324 4.323 4.323 0 1 0-8.648 0 4.323 4.323 0 0 0 4.324 4.324ZM71.41 110.571a4.324 4.324 0 0 0 4.325-4.324 4.325 4.325 0 1 0-4.324 4.324Z" clip-rule="evenodd"/><path fill="url(#c)" d="M164.454 153.082h-32.323v9.96h32.323v-9.96Z"/><path fill="url(#d)" fill-rule="evenodd" d="M85.183 56.566h126.219a2.22 2.22 0 0 1 2.218 2.219v94.18c0 1.254-.966 2.276-2.218 2.276H85.182c-1.254 0-2.218-1.024-2.218-2.276v-94.18a2.22 2.22 0 0 1 2.219-2.219Z" clip-rule="evenodd"/><path fill="#fff" fill-rule="evenodd" d="M88.537 62.2h119.508c.739 0 1.363.626 1.363 1.366v75.002c0 .684-.627 1.312-1.363 1.312H88.538c-.74 0-1.364-.628-1.364-1.312V63.566c0-.74.624-1.367 1.363-1.367Z" clip-rule="evenodd"/><path fill="url(#e)" fill-rule="evenodd" d="M125.131 160.992h46.323c1.254 0 2.218.97 2.218 2.221v.855a2.22 2.22 0 0 1-2.218 2.218h-46.323a2.223 2.223 0 0 1-2.219-2.218v-.855c0-1.254.967-2.221 2.219-2.221Z" clip-rule="evenodd"/><path fill="#fff" fill-rule="evenodd" d="M148.294 148.869c1.136 0 2.103-.91 2.103-2.046a2.099 2.099 0 0 0-2.103-2.106c-1.139 0-2.049.912-2.049 2.106 0 1.136.91 2.046 2.049 2.046Z" clip-rule="evenodd"/><path fill="#76D0DE" fill-rule="evenodd" d="M132.131 113.475h-3.3V76.654h40.972v36.821h-3.245V80.581h-34.427v32.894Z" clip-rule="evenodd"/><path fill="#5FA8B4" fill-rule="evenodd" d="M134.579 130.889c-7.173 0-13.03-5.86-13.03-13.033 0-7.227 5.86-13.03 13.03-13.03v26.063ZM164.057 130.889c7.17 0 13.03-5.86 13.03-13.033 0-7.227-5.86-13.03-13.03-13.03v26.063Z" clip-rule="evenodd"/><path fill="#0173FF" d="M210.435 5.063c-.854-.112-1.478-.91-1.366-1.764.115-.909.909-1.478 1.821-1.366h.227l.4.057.34.055.342.058.397.057.34.058.4.057.339.115.4.058.23.057c.854.115 1.421.967 1.249 1.821-.17.855-.967 1.422-1.821 1.252l-.285-.058-.34-.057-.342-.055-.342-.057-.343-.055-.339-.06-.343-.058-.339-.057-.397-.058h-.228Zm-9.275-3.642c.854 0 1.594.624 1.651 1.536 0 .855-.685 1.594-1.536 1.649H200.308l-.34.057h-.684l-.34.058h-.342l-.342.057h-.058c-.852.058-1.594-.57-1.709-1.421-.057-.855.57-1.649 1.424-1.709h.058l.339-.057h.4l.34-.058h.345l.397-.058h.685l.397-.057h.282v.003Zm-12.803 1.878c.854-.227 1.706.285 1.936 1.14a1.578 1.578 0 0 1-1.137 1.933l-.115.058-.342.057-.339.115-.285.058-.345.112-.285.115-.343.057-.339.115-.288.113-.227.057c-.854.285-1.764-.17-1.991-.966-.285-.855.173-1.767.967-1.994l.285-.115.342-.115.34-.115.342-.055.285-.115.342-.112.342-.115.343-.058.339-.115.173-.055Zm-12.064 4.722c.794-.397 1.706-.113 2.161.684.4.74.115 1.707-.685 2.104l-.115.057-.285.17-.284.173-.285.114-.282.17-.285.173-.285.17-.285.172-.284.17-.285.17c-.74.397-1.706.17-2.161-.567-.455-.742-.227-1.706.57-2.164l.284-.17.282-.172.285-.173.285-.17.34-.17.285-.169.284-.172.34-.173.287-.17.118-.057Zm-10.699 7.284c.681-.566 1.648-.509 2.218.173a1.552 1.552 0 0 1-.173 2.218l-.23.227-.285.173-.227.227-.227.228-.285.227-.227.227-.228.228-.227.227-.285.227-.057.058c-.627.627-1.594.567-2.221-.058-.625-.627-.567-1.594.054-2.218l.061-.058.285-.282.224-.23.288-.227.227-.225.285-.227.227-.227.285-.228.227-.227.291-.233Zm-8.822 9.449c.513-.682 1.479-.855 2.164-.34.739.512.854 1.536.342 2.218l-.115.17-.227.285-.173.285-.227.285-.17.227-.172.285-.227.284-.17.285-.17.285-.115.115c-.455.74-1.424.912-2.164.455-.739-.455-.912-1.48-.451-2.161l.112-.17.17-.285.227-.282.172-.285.228-.342.17-.282.227-.285.172-.285.228-.282.169-.18Zm-6.545 11.209c.343-.794 1.309-1.194 2.106-.852.797.34 1.137 1.309.797 2.106l-.115.285-.17.285-.115.34-.115.284-.115.342-.17.285-.115.343-.112.339-.115.285v.057c-.285.797-1.191 1.197-2.048.912-.797-.284-1.194-1.196-.91-2.048l.113-.343.172-.342.115-.342.115-.34.173-.342.112-.285.115-.342.17-.34.112-.287Zm-3.809 12.35c.167-.854.967-1.42 1.818-1.254.855.173 1.424.97 1.255 1.822v.057l-.058.34-.057.342-.058.342-.057.397-.058.343-.058.342-.054.343-.058.342v.17c-.112.854-.912 1.481-1.821 1.366-.852-.115-1.424-.91-1.309-1.764v-.172l.057-.4.055-.34.058-.397.057-.342.058-.4.057-.34.058-.396.115-.343v-.057Zm71.472 66.866c-.855.228-1.706-.284-1.936-1.136-.228-.797.284-1.706 1.142-1.936l.284-.058.285-.057.34-.115.342-.115.285-.055.342-.115.285-.112.34-.061.285-.112.169-.057c.797-.285 1.709.169 1.991 1.024.228.794-.227 1.706-1.021 1.991l-.173.057-.285.113-.342.06-.339.112-.343.115-.339.115-.343.058-.339.115-.343.115-.287.054Zm12.066-4.666c-.739.4-1.706.115-2.106-.679-.397-.74-.115-1.706.627-2.106l.228-.115.282-.17.287-.173.285-.169.342-.115.285-.173.285-.17.285-.17.227-.172.173-.115c.742-.455 1.766-.17 2.163.567a1.57 1.57 0 0 1-.515 2.163l-.172.118-.34.17-.285.17-.284.172-.285.17-.343.172-.284.17-.283.17-.342.173-.23.112Zm10.755-7.285c-.682.57-1.652.515-2.221-.17-.567-.627-.51-1.651.169-2.221l.061-.057.284-.227.228-.23.227-.17.288-.23.227-.228.227-.227.228-.227.284-.228.228-.227a1.59 1.59 0 0 1 2.218.058c.57.627.57 1.651-.058 2.218l-.227.227-.282.285-.227.227-.285.228-.227.227-.285.227-.23.23-.285.228-.282.227-.06.06Zm8.821-9.39c-.512.684-1.482.8-2.221.287-.68-.515-.795-1.479-.285-2.16v-.058l.227-.288.173-.227.227-.282.17-.285.17-.285.23-.227.172-.282.173-.288.169-.284h.058a1.507 1.507 0 0 1 2.163-.455c.74.454.967 1.421.452 2.163v.058l-.227.282-.17.285-.23.285-.17.284-.227.285-.172.285-.228.282-.227.285-.173.285-.054.055Zm6.542-11.21c-.342.8-1.251 1.197-2.048.855-.797-.397-1.192-1.31-.855-2.106l.058-.115.17-.285.115-.342.115-.285.115-.34.169-.285.115-.342.115-.285.115-.342.115-.23c.285-.794 1.197-1.191 1.994-.91.855.286 1.252 1.195.967 2.05l-.112.227-.113.342-.172.342-.115.34-.113.285-.172.342-.115.342-.17.34-.112.342-.066.06Zm3.873-12.348c-.17.855-.967 1.421-1.824 1.249-.855-.17-1.422-.967-1.249-1.819v-.227l.057-.342.113-.343.06-.34.055-.341.057-.34.055-.342v-.34l.057-.342v-.055c.115-.854.91-1.479 1.824-1.367.852.115 1.422.912 1.309 1.767v.057l-.057.4-.058.34-.057.397-.058.342-.057.397-.06.343-.058.342-.057.397-.052.167Zm1.024-12.863a1.497 1.497 0 0 1-1.479 1.594c-.912.057-1.594-.627-1.649-1.537v-.797l-.057-.342v-.682l-.058-.34v-.342l-.057-.342v-.17c-.058-.912.567-1.651 1.424-1.706.854-.115 1.648.57 1.706 1.424v.227l.057.343v.342l.058.397v.343l.06.34V57.416h-.005Zm-1.821-12.803c.227.797-.285 1.706-1.14 1.879a1.592 1.592 0 0 1-1.936-1.085l-.057-.34-.113-.34-.057-.284-.115-.342-.058-.34-.115-.285-.115-.342-.112-.282-.058-.342-.057-.058c-.227-.797.172-1.706 1.024-1.99.857-.286 1.709.169 1.991 1.023v.058l.115.342.115.343.115.342.115.342.058.34.115.342.115.285.057.34.115.34v.054h-.002Zm-4.667-12.121c.4.797.115 1.766-.682 2.163a1.548 1.548 0 0 1-2.106-.684l-.17-.282-.115-.285-.169-.285-.17-.282-.173-.285-.17-.285-.115-.282-.169-.285-.173-.284-.057-.115a1.567 1.567 0 0 1 .514-2.161c.74-.455 1.704-.227 2.161.567l.058.115.227.285.172.284.17.343.173.285.17.282.169.342.115.285.17.285.17.279Zm-7.227-10.7c.569.627.454 1.652-.17 2.221-.682.567-1.651.455-2.218-.172l-.115-.173-.228-.227-.227-.285-.227-.227-.23-.228-.173-.227-.227-.285-.227-.227-.23-.227-.17-.17c-.627-.63-.567-1.651.057-2.276a1.6 1.6 0 0 1 2.221.058l.17.227.227.227.285.282.23.23.228.285.227.227.227.285.228.288.227.227.115.167Zm-9.446-8.876c.74.51.852 1.48.343 2.219-.515.679-1.537.797-2.221.284l-.058-.057-.282-.17-.287-.23-.228-.17-.282-.172-.285-.228-.284-.172-.228-.17-.285-.227-.284-.173c-.74-.454-.91-1.421-.455-2.16a1.632 1.632 0 0 1 2.218-.455l.285.173.288.227.284.172.285.228.285.172.285.227.285.225.285.172.284.23.052.055Zm-11.157-6.545c.797.342 1.14 1.254.797 2.049-.339.796-1.251 1.196-2.048.854l-.173-.115-.285-.115-.342-.115-.285-.17-.339-.115-.285-.112-.34-.115-.284-.173-.343-.112-.172-.057a1.556 1.556 0 0 1-.91-2.049c.285-.797 1.197-1.197 1.994-.912l.227.115.343.115.342.112.282.115.345.17.34.115.342.173.342.112.283.17.169.06Z"/><path fill="#132547" fill-rule="evenodd" d="M4.487 165.998h277.026c1.936 0 3.53 1.594 3.53 3.527 0 1.937-1.594 3.473-3.53 3.473H4.487c-1.936.003-3.53-1.534-3.53-3.47a3.547 3.547 0 0 1 3.53-3.53Z" clip-rule="evenodd"/><path fill="#01A0FF" fill-rule="evenodd" d="M22.072 180h241.856c1.937 0 3.53-1.536 3.53-3.473a3.544 3.544 0 0 0-3.53-3.527H22.072a3.542 3.542 0 0 0-3.528 3.527c-.002 1.934 1.591 3.473 3.528 3.473Z" clip-rule="evenodd"/><path fill="#fff" fill-rule="evenodd" d="M81.88 71.247c19.633 0 35.624-15.99 35.624-35.623C117.504 15.99 101.513 0 81.88 0 62.304 0 46.256 15.99 46.256 35.624c0 19.633 16.048 35.623 35.624 35.623Z" clip-rule="evenodd"/><path fill="url(#f)" fill-rule="evenodd" d="M64.183 24.982h5.633c1.652 0 2.96 1.367 2.96 3.016V42.51c0 1.593-1.308 2.957-2.96 2.957h-5.633c-1.649 0-2.958-1.366-2.958-2.957V27.998c0-1.649 1.307-3.016 2.958-3.016Z" clip-rule="evenodd"/><path fill="url(#g)" fill-rule="evenodd" d="M69.417 24.982 84.156 8.593v52.241L69.416 45.47V24.981Z" clip-rule="evenodd"/><path fill="#E6E6E6" fill-rule="evenodd" d="M87.743 25.55c.512 0 .967.398.967.967v17.246c0 .509-.455.966-.967.966s-.97-.457-.97-.966V26.518a.96.96 0 0 1 .97-.967ZM93.377 21.055c.57 0 .966.454.966.966v26.236c0 .512-.397.912-.966.912a.9.9 0 0 1-.912-.912V22.021c0-.509.4-.966.912-.966ZM98.84 15.535c.515 0 .967.397.967.97v37.272a.994.994 0 0 1-.967.967.996.996 0 0 1-.967-.967V16.505a.957.957 0 0 1 .967-.97Z" clip-rule="evenodd"/><path fill="url(#h)" fill-rule="evenodd" d="M200.193 78.419c11.439 0 20.772-9.333 20.772-20.77 0-11.439-9.333-20.772-20.772-20.772-11.439 0-20.77 9.333-20.77 20.772-.002 11.44 9.331 20.77 20.77 20.77Z" clip-rule="evenodd"/><path fill="#fff" fill-rule="evenodd" d="M200.363 49.282a7.74 7.74 0 0 1 3.245.742V27.373h19.063v2.958c0 1.594-1.309 2.905-2.957 2.905h-12.803v19.63a7.895 7.895 0 0 1 1.196 4.155c0 4.267-3.469 7.74-7.739 7.74a7.715 7.715 0 0 1-7.742-7.74 7.708 7.708 0 0 1 7.737-7.74Z" clip-rule="evenodd"/><defs><linearGradient id="a" x1="244.957" x2="244.957" y1="166.203" y2="81.927" gradientUnits="userSpaceOnUse"><stop stop-color="#0072FF"/><stop offset="1" stop-color="#00C6FF"/></linearGradient><linearGradient id="b" x1="51.869" x2="51.869" y1="166.203" y2="81.927" gradientUnits="userSpaceOnUse"><stop stop-color="#0072FF"/><stop offset="1" stop-color="#00C6FF"/></linearGradient><linearGradient id="c" x1="148.297" x2="148.297" y1="163.067" y2="153.059" gradientUnits="userSpaceOnUse"><stop stop-color="#0072FF"/><stop offset="1" stop-color="#00C6FF"/></linearGradient><linearGradient id="d" x1="148.309" x2="148.309" y1="155.482" y2="56.343" gradientUnits="userSpaceOnUse"><stop stop-color="#0072FF"/><stop offset="1" stop-color="#00C6FF"/></linearGradient><linearGradient id="e" x1="148.299" x2="148.299" y1="166.299" y2="160.98" gradientUnits="userSpaceOnUse"><stop stop-color="#0072FF"/><stop offset="1" stop-color="#00C6FF"/></linearGradient><linearGradient id="f" x1="69.329" x2="61.028" y1="34.733" y2="34.733" gradientUnits="userSpaceOnUse"><stop stop-color="#0072FF"/><stop offset="1" stop-color="#00C6FF"/></linearGradient><linearGradient id="g" x1="79.756" x2="69.164" y1="33.461" y2="33.461" gradientUnits="userSpaceOnUse"><stop stop-color="#0072FF"/><stop offset="1" stop-color="#00C6FF"/></linearGradient><linearGradient id="h" x1="200.2" x2="200.2" y1="78.52" y2="36.783" gradientUnits="userSpaceOnUse"><stop stop-color="#0072FF"/><stop offset="1" stop-color="#00C6FF"/></linearGradient></defs></svg>