<svg xmlns="http://www.w3.org/2000/svg" width="238" height="180" fill="none"><path fill="#1A1A1A" d="M34.49 28.098h168.977c3.22 0 5.827 2.609 5.827 5.827V147.885H28.664V33.925a5.828 5.828 0 0 1 5.826-5.827Z"/><path fill="url(#a)" d="M34.49 28.098h57.596a61.36 61.36 0 0 1 2.114 16c0 33.87-27.457 61.325-61.325 61.325-1.416 0-2.82-.052-4.212-.147V33.925a5.828 5.828 0 0 1 5.827-5.827Z" opacity=".2"/><path fill="url(#b)" d="M200.145 132.248v7.499H37.813V36.234h162.332v96.014Z"/><path fill="#CCC" d="M235.973 177.282a2.72 2.72 0 0 1-2.72 2.72H4.749a2.72 2.72 0 0 1-2.72-2.72v-2.757h233.944v2.757Z"/><path fill="#B3B3B3" d="M237.234 177.172a.59.59 0 0 1-.59.59H1.356a.59.59 0 0 1-.59-.59v-3.199h236.468v3.199Z"/><path fill="#CCC" d="M132.496 174.508a1.36 1.36 0 0 1-1.36 1.359h-24.271a1.358 1.358 0 0 1-1.359-1.359v-.535h26.99v.535Z"/><path fill="#F3F3F3" d="m209.221 145.836 28.013 28.137H.766l28.013-28.137H209.22Z"/><path fill="#D1D1D1" d="M218.706 162.594h-16.273l-11.454-14.742h14.039l13.688 14.742ZM47.021 147.852l-11.454 14.742H19.294l13.688-14.742h14.039Z"/><path fill="#D8D8D8" d="M95.09 166.348c.29-1.346 1.74-2.412 3.245-2.412h41.33c1.505 0 2.955 1.066 3.245 2.412l.789 3.665c.317 1.471-.739 2.693-2.367 2.693H96.668c-1.627 0-2.683-1.222-2.367-2.693l.789-3.665Z"/><path fill="#313946" d="M197.612 162.594h-9.08l-1.737-2.684h8.852l1.965 2.684ZM189.198 151.1h-8.107l-1.39-2.145h7.925l1.572 2.145ZM187.369 148.601h-11.776l-.455-.749h11.681l.55.749ZM173.985 148.601h-7.896l-.378-.749h7.833l.441.749ZM164.287 148.601h-7.896l-.301-.749h7.833l.364.749ZM154.713 148.601h-7.895l-.224-.749h7.832l.287.749ZM145.014 148.601h-7.894l-.146-.749h7.832l.208.749ZM135.486 148.601h-7.896l-.069-.749h7.833l.132.749ZM125.733 147.852l.054.749h-7.896l.009-.749h7.833ZM116.238 147.852l-.023.749h-7.896l.086-.749h7.833ZM107.005 147.852l-.097.749h-7.897l.161-.749h7.833ZM97.591 147.852l-.172.749h-7.897l.237-.749h7.832ZM87.75 147.852l-.251.749h-7.896l.315-.749h7.832ZM78.13 147.852l-.33.749h-7.896l.393-.749h7.834ZM68.634 147.852l-.408.749H60.33l.472-.749h7.832ZM59.013 147.852l-.485.749h-7.896l.549-.749h7.832ZM193.167 156.521h-15.335l-1.388-2.392h14.972l1.751 2.392ZM191.128 153.736h-12.992l-1.358-2.263h12.692l1.658 2.263ZM195.325 159.469h-22.318l-1.313-2.531h21.778l1.853 2.531ZM62.956 154.129l-1.356 2.392H44.86l1.751-2.392h16.345ZM66.333 156.938l-1.31 2.531H42.704l1.852-2.531h21.776ZM186.763 162.594h-9.079l-1.467-2.684h8.852l1.694 2.684ZM171.271 159.469h-8.814l-1.056-2.531h8.602l1.268 2.531ZM160.444 159.469h-8.814l-.793-2.531h8.601l1.006 2.531ZM150.039 159.469h-8.814l-.54-2.531h8.6l.754 2.531ZM139.212 159.469h-8.814l-.278-2.531h8.602l.49 2.531ZM128.633 159.469h-8.815l-.02-2.531h8.602l.233 2.531ZM117.835 156.938l-.029 2.531h-8.815l.244-2.531h8.6ZM107.683 156.938l-.282 2.531h-8.816l.496-2.531h8.602ZM97.118 156.938l-.544 2.531h-8.816l.759-2.531h8.601ZM87.007 156.938l-.795 2.531h-8.815l1.01-2.531h8.6ZM76.444 156.938l-1.06 2.531H66.57l1.272-2.531h8.602ZM175.883 156.521h-8.565l-1.141-2.392h8.363l1.343 2.392ZM165.362 156.521h-8.565l-.893-2.392h8.363l1.095 2.392ZM155.251 156.521h-8.566l-.653-2.392h8.364l.855 2.392ZM144.731 156.521h-8.567l-.405-2.392h8.363l.609 2.392ZM134.45 156.521h-8.566l-.162-2.392h8.363l.365 2.392ZM123.812 154.129l.117 2.392h-8.565l.085-2.392h8.363ZM113.941 154.129l-.123 2.392h-8.565l.324-2.392h8.364ZM103.667 154.129l-.37 2.392H94.73l.574-2.392h8.363ZM93.837 154.129l-.608 2.392h-8.567l.811-2.392h8.364ZM83.564 154.129l-.858 2.392h-8.565l1.059-2.392h8.364ZM73.26 154.129l-1.106 2.392h-8.567l1.31-2.392h8.363ZM176.215 153.736h-8.33l-1.122-2.263h8.137l1.315 2.263ZM165.984 153.736h-8.331l-.888-2.263h8.139l1.08 2.263ZM156.151 153.736h-8.332l-.661-2.263h8.139l.854 2.263ZM145.918 153.736h-8.33l-.427-2.263h8.138l.619 2.263ZM135.921 153.736h-8.33l-.197-2.263h8.139l.388 2.263ZM125.535 151.473l.155 2.263h-8.33l.037-2.263h8.138ZM115.928 151.473l-.071 2.263h-8.33l.262-2.263h8.139ZM105.932 151.473l-.308 2.263h-8.33l.5-2.263h8.138ZM95.96 151.473l-.54 2.263h-8.33l.732-2.263h8.139ZM86.368 151.473l-.767 2.263h-8.33l.959-2.263h8.138ZM76.34 151.473l-1.002 2.263h-8.33l1.194-2.263h8.139ZM66.536 151.473l-1.233 2.263H56.97l1.426-2.263h8.14ZM56.695 151.473l-1.465 2.263H46.9l1.656-2.263h8.14ZM179.51 151.1h-8.108l-1.173-2.145h7.927l1.354 2.145ZM169.552 151.1h-8.108l-.95-2.145h7.927l1.131 2.145ZM159.981 151.1h-8.107l-.735-2.145h7.926l.916 2.145ZM150.024 151.1h-8.108l-.512-2.145h7.925l.695 2.145ZM140.295 151.1h-8.109l-.294-2.145h7.925l.478 2.145ZM130.335 151.1h-8.107l-.071-2.145h7.925l.253 2.145ZM120.726 148.955l.04 2.145h-8.107l.141-2.145h7.926ZM110.992 148.955l-.184 2.145h-8.107l.364-2.145h7.927ZM101.674 148.955l-.396 2.145h-8.107l.578-2.145h7.925ZM91.939 148.955l-.619 2.145h-8.107l.8-2.145h7.926ZM82.174 148.955l-.842 2.145h-8.109l1.026-2.145h7.925ZM72.626 148.955l-1.062 2.145h-8.107l1.244-2.145h7.925ZM63.042 148.955l-1.28 2.145H48.83l1.57-2.145h12.643ZM175.753 162.594h-9.078l-1.193-2.684h8.852l1.419 2.684ZM83.375 159.91l-.913 2.684h-9.08l1.141-2.684h8.852ZM72.64 159.91l-1.187 2.684h-9.08l1.416-2.684h8.852ZM51.323 159.773l-1.732 2.677h-9.068l1.959-2.677h8.841ZM62.012 159.773l-.644 1.181h-8.94l.743-1.181h8.841ZM61.139 161.377l-.665 1.218h-9.078l.766-1.218h8.977ZM164.904 162.594h-11.846l-.851-2.684h11.55l1.147 2.684ZM96.54 159.91l-.576 2.684H84.119l.87-2.684H96.54ZM149.832 159.91l.791 2.684H98.009l.525-2.684h51.298Z"/><path fill="#333" d="M52.682 145.836h132.661l.005.006c.346.473.095.86-.562.86H53.239c-.658 0-.908-.387-.563-.86l.006-.006Z"/><path fill="#000" d="M59.438 59.911C59.438 26.823 86.262 0 119.35 0c33.089 0 59.911 26.823 59.911 59.911 0 30.68-23.063 55.971-52.797 59.489l-3.395 5.882-4.102 7.104-4.102-7.104-3.455-5.985c-29.335-3.884-51.972-28.99-51.972-59.386Z"/><path fill="#fff" d="M179.261 59.911C179.261 26.823 152.439 0 119.35 0 86.262 0 59.438 26.823 59.438 59.911c0 30.68 23.063 55.971 52.798 59.489l3.395 5.882 4.102 7.104 4.102-7.104 3.454-5.985c29.335-3.884 51.972-28.99 51.972-59.386Z"/><path fill="url(#c)" d="m88.524 71.126 22.364 24.3a2.254 2.254 0 0 0 3.408-.106l39.176-48.286a2.254 2.254 0 0 0-.408-3.23l-9.617-7.123a2.253 2.253 0 0 0-3.123.431l-25.736 33.244a2.253 2.253 0 0 1-3.375.214l-11.091-11.09a2.255 2.255 0 0 0-3.204.016l-8.347 8.526a2.255 2.255 0 0 0-.047 3.104Z"/><defs><linearGradient id="a" x1="27.769" x2="77.044" y1="104.761" y2="19.413" gradientUnits="userSpaceOnUse"><stop/><stop offset="1" stop-color="#fff"/></linearGradient><linearGradient id="b" x1="119" x2="119" y1="140" y2="36" gradientUnits="userSpaceOnUse"><stop stop-color="#0072FF"/><stop offset="1" stop-color="#00C6FF"/></linearGradient><linearGradient id="c" x1="93.515" x2="155.432" y1="18.025" y2="107.348" gradientUnits="userSpaceOnUse"><stop stop-color="#A7D63F"/><stop offset=".074" stop-color="#9FD340"/><stop offset="1" stop-color="#39B54A"/></linearGradient></defs></svg>