<svg xmlns="http://www.w3.org/2000/svg" width="41" height="40" fill="none"><path fill="#fff" d="M31.804 16.522a.87.87 0 0 1-.87.87H17.023a.87.87 0 1 1 0-1.74h13.913a.87.87 0 0 1 .87.87Zm-.87 6.087H17.023a.87.87 0 1 0 0 1.739h13.913a.87.87 0 0 0 0-1.74Zm9.566-20V37.39A2.608 2.608 0 0 1 37.891 40H3.11A2.608 2.608 0 0 1 .5 37.391V2.61A2.609 2.609 0 0 1 3.109 0H37.89A2.609 2.609 0 0 1 40.5 2.609ZM3.109 38.26h6.087V1.739H3.109a.87.87 0 0 0-.87.87V37.39a.87.87 0 0 0 .87.87ZM38.76 2.609a.87.87 0 0 0-.87-.87H10.935v36.522H37.89a.87.87 0 0 0 .87-.87V2.61Z"/></svg>