<svg width="55" height="40" fill="none" xmlns="http://www.w3.org/2000/svg"><path d="M54.07 19.276 43.633 12.32a.87.87 0 0 0-1.352.723v6.087H14.456V7.826a.87.87 0 0 1 .87-.87h7.889a6.087 6.087 0 1 0 0-1.739h-7.89a2.609 2.609 0 0 0-2.608 2.61V19.13H1.413a.87.87 0 0 0 0 1.74h11.304v11.304a2.608 2.608 0 0 0 2.609 2.609h7.826v2.608A2.609 2.609 0 0 0 25.76 40h6.957a2.608 2.608 0 0 0 2.609-2.609v-6.956a2.609 2.609 0 0 0-2.609-2.609h-6.956a2.609 2.609 0 0 0-2.61 2.609v2.609h-7.825a.87.87 0 0 1-.87-.87V20.87h27.826v6.086a.87.87 0 0 0 1.352.724l10.435-6.956a.87.87 0 0 0 0-1.448ZM29.238 1.74a4.348 4.348 0 1 1 0 8.696 4.348 4.348 0 0 1 0-8.696ZM24.89 30.435a.87.87 0 0 1 .87-.87h6.956a.87.87 0 0 1 .87.87v6.956a.87.87 0 0 1-.87.87h-6.956a.87.87 0 0 1-.87-.87v-6.956Zm19.13-5.102V14.667L52.02 20l-7.998 5.333Z" fill="#fff"/></svg>