<svg xmlns="http://www.w3.org/2000/svg" width="49" height="40" fill="none"><path fill="#fff" d="M40.69 16.19a.952.952 0 0 1-.952.953h-9.524a.952.952 0 0 1 0-1.905h9.524a.952.952 0 0 1 .953.953Zm-.952 6.667h-9.524a.952.952 0 0 0 0 1.905h9.524a.952.952 0 1 0 0-1.905Zm8.572-20v34.286A2.857 2.857 0 0 1 45.452 40H3.548A2.857 2.857 0 0 1 .69 37.143V2.857A2.857 2.857 0 0 1 3.548 0h41.904a2.857 2.857 0 0 1 2.858 2.857Zm-1.905 0a.952.952 0 0 0-.953-.952H3.548a.952.952 0 0 0-.953.952v34.286a.952.952 0 0 0 .953.952h41.904a.952.952 0 0 0 .953-.952V2.857ZM25.42 29.286a.952.952 0 1 1-1.842.476c-.731-2.857-3.603-5-6.698-5s-5.952 2.143-6.698 5a.952.952 0 1 1-1.843-.476 8.638 8.638 0 0 1 4.865-5.634 6.667 6.667 0 1 1 7.352 0 8.619 8.619 0 0 1 4.864 5.634Zm-8.54-6.429a4.761 4.761 0 1 0 0-9.522 4.761 4.761 0 0 0 0 9.522Z"/></svg>