<svg width="43" height="40" fill="none" xmlns="http://www.w3.org/2000/svg"><path d="M41.5 17.39H10.035l29.945-7.905a.87.87 0 0 0 .617-1.07l-1.774-6.521a2.591 2.591 0 0 0-3.16-1.807L2.547 8.827a2.561 2.561 0 0 0-1.897 2.14c-.043.33-.02.666.067.988l1.667 6.129a.842.842 0 0 0-.017.176V37.39A2.609 2.609 0 0 0 4.977 40H39.76a2.61 2.61 0 0 0 2.61-2.609V18.26a.87.87 0 0 0-.87-.87ZM21.935 5.505l8.262 4.765-10.418 2.75-8.253-4.76 10.41-2.755ZM36.1 1.765a.87.87 0 0 1 .218-.028.844.844 0 0 1 .835.61l1.543 5.68-6.109 1.613-8.261-4.766L36.1 1.765ZM2.468 10.896a.838.838 0 0 1 .515-.391L9.13 8.883l8.262 4.763L3.944 17.2l-1.548-5.692a.796.796 0 0 1 .08-.609l-.008-.002Zm38.163 26.495a.87.87 0 0 1-.87.87H4.977a.87.87 0 0 1-.87-.87V19.13h36.524v18.262Z" fill="#fff"/></svg>