<svg width="35" height="40" fill="none" xmlns="http://www.w3.org/2000/svg"><path d="M27.9 31.2V2.4A2.4 2.4 0 0 0 25.5 0H3.1A2.4 2.4 0 0 0 .7 2.4v28.8a2.4 2.4 0 0 0 2.4 2.4h22.4a2.4 2.4 0 0 0 2.4-2.4ZM3.1 32a.8.8 0 0 1-.8-.8V2.4a.8.8 0 0 1 .8-.8h22.4a.8.8 0 0 1 .8.8v28.8a.8.8 0 0 1-.8.8H3.1Zm28.8 8h-24a.8.8 0 0 1 0-1.6h24a.8.8 0 0 0 .8-.8V7.2a.8.8 0 0 1 1.6 0v30.4a2.4 2.4 0 0 1-2.4 2.4Z" fill="#fff"/><path d="M18.236 7.482a.467.467 0 0 1 .51-.054l-.51.054Zm0 0-6.228 5.143 6.228-5.143Zm3.468 11.05a.507.507 0 0 0-.116.358.51.51 0 0 0 .158.342.466.466 0 0 0 .68-.044c.532-.64.824-1.462.824-2.313a3.622 3.622 0 0 0-.824-2.307l-.003-.004a.466.466 0 0 0-.666-.03.516.516 0 0 0-.056.684l.003.004c.378.457.588 1.045.588 1.655 0 .61-.21 1.198-.588 1.654Zm0 0 .096.08m-.096-.08.096.08m0 0a.38.38 0 0 0-.088.27c.006.1.049.193.12.259a.341.341 0 0 0 .498-.033l-.53-3.965a2.72 2.72 0 0 1 .617 1.734 2.72 2.72 0 0 1-.617 1.734ZM7.707 19.874v-6c0-.069.025-.133.069-.18.043-.046.1-.07.159-.07h3.76v6.5h-3.76a.218.218 0 0 1-.159-.07.262.262 0 0 1-.07-.18ZM18.054 8.911v15.932l-5.402-4.464V13.37l5.402-4.46Z" fill="#fff" stroke="#fff" stroke-width=".25"/></svg>