<svg width="47" height="40" fill="none" xmlns="http://www.w3.org/2000/svg"><path d="M42.341 8.696h-4.058V.87a.87.87 0 0 0-.87-.87H9.587a.87.87 0 0 0-.87.87v7.826H4.66c-2.557 0-4.637 1.956-4.637 4.348v17.39a.87.87 0 0 0 .87.87h7.825v7.826a.87.87 0 0 0 .87.87h27.826a.87.87 0 0 0 .87-.87v-7.826h7.826a.87.87 0 0 0 .87-.87v-17.39c0-2.392-2.081-4.348-4.638-4.348ZM10.456 1.739h26.088v6.957H10.457V1.739Zm26.088 36.522H10.457V26.087h26.087v12.174Zm8.695-8.696h-6.956v-4.348a.87.87 0 0 0-.87-.87H9.587a.87.87 0 0 0-.87.87v4.348H1.761V13.043c0-1.439 1.304-2.608 2.898-2.608H42.34c1.594 0 2.898 1.17 2.898 2.608v16.522Zm-6.956-12.174a1.739 1.739 0 1 1-3.478 0 1.739 1.739 0 0 1 3.478 0Z" fill="#fff"/></svg>