<svg xmlns="http://www.w3.org/2000/svg" width="45" height="40" fill="none"><path fill="#fff" d="M41.548 22.857H3.452a2.857 2.857 0 0 0-2.857 2.857v11.429A2.857 2.857 0 0 0 3.452 40h38.096a2.857 2.857 0 0 0 2.857-2.857V25.714a2.857 2.857 0 0 0-2.857-2.857Zm.952 14.286a.953.953 0 0 1-.952.952H3.452a.952.952 0 0 1-.952-.952V25.714a.953.953 0 0 1 .952-.952h38.096a.952.952 0 0 1 .952.952v11.429ZM41.548 0H3.452A2.857 2.857 0 0 0 .595 2.857v11.429a2.857 2.857 0 0 0 2.857 2.857h38.096a2.857 2.857 0 0 0 2.857-2.857V2.857A2.857 2.857 0 0 0 41.548 0Zm.952 14.286a.953.953 0 0 1-.952.952H3.452a.952.952 0 0 1-.952-.952V2.857a.952.952 0 0 1 .952-.952h38.096a.952.952 0 0 1 .952.952v11.429Zm-5.714 17.143a1.905 1.905 0 1 1-3.81 0 1.905 1.905 0 0 1 3.81 0Zm0-22.858a1.905 1.905 0 1 1-3.81 0 1.905 1.905 0 0 1 3.81 0Z"/></svg>