<svg width="49" height="40" fill="none" xmlns="http://www.w3.org/2000/svg"><path d="M48.31.952v9.524a.952.952 0 1 1-1.905 0V1.905h-8.572a.952.952 0 0 1 0-1.905h9.524a.952.952 0 0 1 .953.952ZM11.166 38.095H2.595v-8.571a.952.952 0 1 0-1.905 0v9.524a.953.953 0 0 0 .953.952h9.524a.952.952 0 1 0 0-1.905Zm36.19-9.524a.953.953 0 0 0-.952.953v8.571h-8.572a.953.953 0 0 0 0 1.905h9.524a.952.952 0 0 0 .953-.952v-9.524a.952.952 0 0 0-.953-.953ZM1.643 11.43a.952.952 0 0 0 .952-.953V1.905h8.572a.952.952 0 1 0 0-1.905H1.643A.952.952 0 0 0 .69.952v9.524a.952.952 0 0 0 .953.953ZM13.07 9.524a.952.952 0 0 0-.952.952v19.048a.952.952 0 1 0 1.905 0V10.476a.952.952 0 0 0-.953-.952Zm23.81.952a.952.952 0 0 0-1.905 0v19.048a.952.952 0 1 0 1.905 0V10.476Zm-8.572-.952a.952.952 0 0 0-.952.952v19.048a.952.952 0 1 0 1.905 0V10.476a.952.952 0 0 0-.953-.952Zm-7.619 0a.952.952 0 0 0-.952.952v19.048a.952.952 0 1 0 1.905 0V10.476a.952.952 0 0 0-.953-.952Z" fill="#fff"/></svg>