<svg xmlns="http://www.w3.org/2000/svg" width="45" height="40" fill="none"><path fill="#fff" d="M39.891 0H5.11A4.348 4.348 0 0 0 .76 4.348v24.348a4.348 4.348 0 0 0 4.348 4.348H39.89a4.348 4.348 0 0 0 4.348-4.348V4.348A4.348 4.348 0 0 0 39.891 0ZM42.5 28.696a2.609 2.609 0 0 1-2.609 2.608H5.11A2.609 2.609 0 0 1 2.5 28.696V4.348a2.609 2.609 0 0 1 2.609-2.609H39.89A2.609 2.609 0 0 1 42.5 4.348v24.348ZM30.326 39.13a.87.87 0 0 1-.87.87H15.544a.87.87 0 1 1 0-1.74h13.912a.87.87 0 0 1 .87.87Z"/><path fill="#fff" stroke="#fff" stroke-width=".25" d="m22.522 17.424-4.884 3.53a.484.484 0 0 1-.527.027.472.472 0 0 1-.22-.285.453.453 0 0 1 .177-.49l5.454-2.782Zm0 0v7.236a.473.473 0 0 0 .266.417.49.49 0 0 0 .497-.044l5.647-4.08a.468.468 0 0 0 .193-.373.455.455 0 0 0-.193-.373l-5.13-3.707 5.13-3.707a.468.468 0 0 0 .193-.373.455.455 0 0 0-.193-.373l-5.647-4.08a.486.486 0 0 0-.69.127.455.455 0 0 0-.073.246v7.236l-4.884-3.53a.484.484 0 0 0-.352-.086.48.48 0 0 0-.314.18.456.456 0 0 0 .096.653l5.454 4.631Zm-.324-.924-5.13 3.707v-7.414l5.13 3.707Zm1.28-.925v-6.31l4.367 3.155-4.367 3.155Zm0 8.16v-6.31l4.367 3.155-4.367 3.155Z"/></svg>