<svg width="18" height="24" fill="none" xmlns="http://www.w3.org/2000/svg"><path d="M16.535 22.017h-5.733a27.875 27.875 0 0 0 2.858-2.831C16.5 15.92 18 12.488 18 9.25a9 9 0 1 0-18 0c0 3.235 1.5 6.67 4.34 9.936a27.874 27.874 0 0 0 2.858 2.831H1.465a.628.628 0 0 0 0 1.256h15.07a.628.628 0 0 0 0-1.256ZM1.255 9.25a7.744 7.744 0 0 1 15.49 0c0 6.24-6.175 11.4-7.745 12.611C7.43 20.65 1.256 15.49 1.256 9.25Zm11.722 0a3.976 3.976 0 1 0-7.953 0 3.976 3.976 0 0 0 7.953 0Zm-6.698 0a2.72 2.72 0 1 1 5.442 0 2.72 2.72 0 0 1-5.442 0Z" fill="#fff"/></svg>