<svg width="46" height="48" fill="none" xmlns="http://www.w3.org/2000/svg"><path d="M43.005 0H3a3 3 0 0 0-3 3v14.694c0 21.72 18.387 28.928 22.072 30.153a2.913 2.913 0 0 0 1.86 0c3.686-1.225 22.073-8.433 22.073-30.153V3a3 3 0 0 0-3-3Zm1 17.7c0 20.347-17.252 27.105-20.703 28.252a.882.882 0 0 1-.6 0C19.252 44.805 2 38.047 2 17.7V3a1 1 0 0 1 1-1h40.005a1 1 0 0 1 1 1v14.7ZM33.71 14.293a1 1 0 0 1 0 1.415L19.71 29.711a1 1 0 0 1-1.416 0l-6-6.001a1 1 0 0 1 1.415-1.415l5.293 5.293 13.294-13.294a1 1 0 0 1 1.415 0Z" fill="#0072FF"/></svg>