<svg width="41" height="48" fill="none" xmlns="http://www.w3.org/2000/svg"><path d="M24.894 47.111a.889.889 0 0 1-.89.889h-7.112a.89.89 0 0 1 0-1.778h7.113a.89.89 0 0 1 .889.889Zm-4.445-25.782a1.778 1.778 0 1 0 0-3.557 1.778 1.778 0 0 0 0 3.557Zm20.385 10.446-2.75 12.358a2.644 2.644 0 0 1-1.715 1.936 2.654 2.654 0 0 1-2.54-.425l-6.301-4.756H13.37l-6.3 4.756a2.654 2.654 0 0 1-2.54.425 2.645 2.645 0 0 1-1.715-1.936L.063 31.775A2.667 2.667 0 0 1 .62 29.49l6.523-7.83C7.875 9.807 16.439 2.395 18.815.56a2.667 2.667 0 0 1 3.267 0c2.376 1.836 10.94 9.248 11.673 21.101l6.524 7.83a2.666 2.666 0 0 1 .555 2.285Zm-27.25 7.335h13.73c12.264-21.228-3.087-34.662-6.319-37.153a.889.889 0 0 0-1.093 0C16.67 4.448 1.319 17.882 13.583 39.11Zm-1.672.65C8.696 34.123 7.32 29.002 7.113 24.455l-5.13 6.165a.889.889 0 0 0-.184.763l2.747 12.364a.889.889 0 0 0 1.425.502l.02-.015 5.92-4.472Zm27.002-9.14-5.13-6.166c-.198 4.547-1.573 9.668-4.79 15.307l5.922 4.472.02.015a.89.89 0 0 0 1.424-.502l2.747-12.364a.888.888 0 0 0-.193-.763Z" fill="#0072FF"/></svg>