<svg width="48" height="48" fill="none" xmlns="http://www.w3.org/2000/svg"><path d="M24 13.507A10.492 10.492 0 1 0 34.49 23.999 10.504 10.504 0 0 0 24 13.507Zm0 19.077a8.584 8.584 0 1 1 0-17.169 8.584 8.584 0 0 1 0 17.169Zm20.013-7.748c.02-.558.02-1.114 0-1.669l3.775-4.72a.954.954 0 0 0 .179-.84 24.712 24.712 0 0 0-2.507-6.031.953.953 0 0 0-.715-.477l-6.007-.668a21.182 21.182 0 0 0-1.18-1.18l-.665-5.998a.952.952 0 0 0-.477-.715A24.8 24.8 0 0 0 30.395.034a.954.954 0 0 0-.842.177l-4.717 3.774a20.87 20.87 0 0 0-1.669 0L18.443.211a.954.954 0 0 0-.842-.18 24.715 24.715 0 0 0-6.025 2.507.953.953 0 0 0-.477.715L10.43 9.26c-.408.377-.804.773-1.18 1.18l-5.998.666a.955.955 0 0 0-.715.477 24.8 24.8 0 0 0-2.504 6.02.954.954 0 0 0 .177.842l3.774 4.717a20.87 20.87 0 0 0 0 1.67L.211 29.554a.953.953 0 0 0-.18.842 24.714 24.714 0 0 0 2.507 6.026.955.955 0 0 0 .715.477l6.007.668c.377.407.773.803 1.18 1.18l.668 6.009a.955.955 0 0 0 .477.715 24.796 24.796 0 0 0 6.028 2.495.953.953 0 0 0 .842-.177l4.717-3.775c.558.021 1.114.021 1.669 0l4.719 3.775a.954.954 0 0 0 .835.179 24.717 24.717 0 0 0 6.028-2.509.954.954 0 0 0 .477-.715l.667-6.007c.408-.377.804-.772 1.18-1.18l6.01-.668a.952.952 0 0 0 .715-.477 24.795 24.795 0 0 0 2.495-6.028.953.953 0 0 0-.177-.842l-3.777-4.707Zm.04 10.213-5.882.654a.954.954 0 0 0-.608.314c-.484.546-1 1.062-1.546 1.546a.954.954 0 0 0-.314.608l-.654 5.88a22.758 22.758 0 0 1-4.683 1.944l-4.621-3.699a.954.954 0 0 0-.597-.207h-.057a17.57 17.57 0 0 1-2.184 0 .953.953 0 0 0-.653.207l-4.62 3.696a22.733 22.733 0 0 1-4.685-1.938l-.653-5.883a.954.954 0 0 0-.315-.608 18.17 18.17 0 0 1-1.545-1.546.954.954 0 0 0-.608-.314l-5.88-.654a22.76 22.76 0 0 1-1.944-4.683l3.698-4.621a.954.954 0 0 0 .208-.654 18.543 18.543 0 0 1 0-2.184.954.954 0 0 0-.208-.653l-3.696-4.62c.47-1.629 1.12-3.2 1.939-4.685l5.883-.653a.954.954 0 0 0 .608-.315c.483-.546 1-1.062 1.545-1.545a.954.954 0 0 0 .315-.608l.653-5.88a22.762 22.762 0 0 1 4.683-1.944l4.622 3.698a.954.954 0 0 0 .653.208 17.57 17.57 0 0 1 2.184 0 .954.954 0 0 0 .654-.208l4.619-3.696c1.629.47 3.2 1.12 4.685 1.939l.654 5.883a.954.954 0 0 0 .314.608c.546.483 1.062 1 1.546 1.545a.954.954 0 0 0 .608.315l5.88.653a22.766 22.766 0 0 1 1.944 4.683l-3.699 4.622a.953.953 0 0 0-.207.653c.043.727.043 1.457 0 2.184a.954.954 0 0 0 .207.654l3.696 4.619a22.733 22.733 0 0 1-1.938 4.685Z" fill="#0072FF"/></svg>