<svg width="20" height="17" fill="none" xmlns="http://www.w3.org/2000/svg"><path d="M19.872 2.134c-.129.27-.368.613-.717 1.027a5.28 5.28 0 0 1-1.295 1.092c.014.114.025.22.032.32.055 1.539-.313 3.134-.824 4.464-.991 2.471-2.51 4.46-4.677 5.811-2.261 1.297-4.895 1.573-7.32 1.338-1.612-.185-3.2-.711-4.4-1.702 2.196.263 4.245-.484 5.865-1.69-1.8.045-3.107-1.257-3.724-2.762.278.073.57.064.835.043.326-.03.636-.061.942-.129-1.148-.37-2.152-1.05-2.676-2.076a4.475 4.475 0 0 1-.45-1.97c.538.284 1.185.56 1.777.536C2.346 5.678 1.629 4.71 1.495 3.6c-.084-.926.148-1.771.482-2.558 1.338 1.47 2.839 2.68 4.57 3.425 1.184.485 2.365.744 3.586.749-.141-1.09-.032-2.145.481-3.04.604-.962 1.485-1.52 2.472-1.798a3.65 3.65 0 0 1 3.66 1.135c.937-.101 1.834-.517 2.548-.942-.303.918-.894 1.832-1.755 2.269a11.1 11.1 0 0 0 2.333-.706Z" fill="#fff"/></svg>