<svg width="16" height="17" fill="none" xmlns="http://www.w3.org/2000/svg"><path d="M8 .262c-2.173 0-2.445.01-3.298.048C3.85.35 3.27.484 2.76.682a3.918 3.918 0 0 0-1.417.922c-.445.445-.72.891-.923 1.418-.198.51-.333 1.09-.372 1.942C.008 5.817 0 6.088 0 8.262c0 2.173.01 2.444.048 3.298.04.851.174 1.432.372 1.942.2.534.516 1.017.923 1.417.4.407.883.722 1.417.923.51.197 1.09.332 1.942.372.853.04 1.125.048 3.298.048s2.445-.01 3.298-.048c.851-.04 1.432-.175 1.942-.372a3.931 3.931 0 0 0 1.417-.923c.408-.4.723-.883.923-1.417.197-.51.333-1.09.372-1.942.04-.854.048-1.125.048-3.298 0-2.174-.01-2.445-.048-3.298-.04-.852-.175-1.433-.372-1.942a3.927 3.927 0 0 0-.923-1.418A3.897 3.897 0 0 0 13.24.682C12.73.484 12.15.349 11.298.31 10.445.27 10.173.262 8 .262Zm0 1.44c2.135 0 2.39.01 3.233.047.78.037 1.204.166 1.485.277.375.144.64.318.921.597.28.28.453.546.598.92.109.282.24.705.275 1.485.038.844.047 1.098.047 3.234s-.01 2.39-.05 3.233c-.04.78-.17 1.203-.28 1.485a2.54 2.54 0 0 1-.6.921 2.495 2.495 0 0 1-.92.597c-.28.11-.71.24-1.49.276-.849.038-1.099.046-3.239.046-2.14 0-2.39-.01-3.24-.049-.78-.04-1.21-.17-1.49-.28a2.478 2.478 0 0 1-.92-.6 2.43 2.43 0 0 1-.6-.92c-.11-.28-.239-.71-.28-1.49-.03-.84-.04-1.1-.04-3.23s.01-2.39.04-3.24c.041-.78.17-1.21.28-1.49.14-.38.32-.64.6-.92.28-.28.54-.46.92-.599.28-.11.7-.24 1.48-.28.85-.03 1.1-.04 3.24-.04l.03.02Zm0 2.452a4.108 4.108 0 1 0 0 8.216 4.108 4.108 0 0 0 0-8.216Zm0 6.774a2.666 2.666 0 1 1 0-5.333 2.666 2.666 0 1 1 0 5.333Zm5.23-6.936a.961.961 0 0 1-1.92 0 .96.96 0 1 1 1.92 0Z" fill="#fff"/></svg>