<svg width="16" height="17" fill="none" xmlns="http://www.w3.org/2000/svg"><path d="M10.002 11.369v1.884c0 .399-.136.598-.406.598-.16 0-.316-.066-.47-.196v-2.688c.154-.13.31-.196.47-.196.27 0 .406.2.406.598Zm3.52.009v.41h-.937v-.41c0-.405.156-.607.469-.607.312 0 .469.202.469.607ZM3.46 9.43h1.115v-.839h-3.25v.84h1.094v5.08H3.46v-5.08Zm3 5.08h.927v-4.41H6.46v3.375c-.208.25-.406.375-.594.375-.125 0-.197-.063-.218-.188a2.132 2.132 0 0 1-.01-.312v-3.25H4.71v3.491c0 .292.028.509.084.652.083.22.284.33.604.33.333 0 .687-.181 1.062-.544v.482Zm4.469-1.32v-1.76c0-.434-.031-.729-.094-.884-.118-.333-.364-.5-.74-.5-.347 0-.67.161-.968.483V8.592H8.2v5.92h.927v-.429c.312.328.635.491.969.491.375 0 .621-.163.74-.49.062-.162.093-.46.093-.894Zm3.52-.09v-.116h-.947c0 .304-.007.485-.021.545-.049.214-.188.321-.417.321-.32 0-.479-.205-.479-.616v-.777h1.865v-.92c0-.47-.094-.815-.281-1.035-.271-.304-.64-.456-1.105-.456-.472 0-.843.152-1.114.456-.195.22-.292.565-.292 1.036v1.544c0 .47.1.816.302 1.036.271.303.646.455 1.125.455.5 0 .875-.158 1.125-.473a.999.999 0 0 0 .219-.482c.014-.054.02-.226.02-.518ZM8.117 4.949V3.074c0-.41-.149-.616-.447-.616-.3 0-.448.205-.448.616V4.95c0 .417.149.625.448.625.298 0 .447-.208.447-.625Zm7.49 6.706c0 1.392-.09 2.434-.27 3.125a1.664 1.664 0 0 1-.605.884c-.306.238-.66.374-1.063.41-1.277.125-3.204.188-5.78.188-2.577 0-4.504-.063-5.782-.188a2.002 2.002 0 0 1-1.068-.41 1.6 1.6 0 0 1-.599-.884c-.18-.667-.27-1.709-.27-3.125 0-1.393.09-2.435.27-3.125.098-.352.299-.646.605-.884a2.044 2.044 0 0 1 1.072-.42c1.271-.119 3.195-.179 5.771-.179 2.577 0 4.504.06 5.782.179.402.042.758.182 1.067.42a1.6 1.6 0 0 1 .6.884c.18.666.27 1.708.27 3.125ZM5.21.262h1.063l-1.26 3.562v2.42H3.97v-2.42c-.098-.44-.31-1.071-.636-1.893a70.018 70.018 0 0 1-.677-1.67h1.104l.74 2.349L5.21.262Zm3.854 2.973v1.562c0 .483-.097.834-.291 1.054-.264.304-.632.455-1.104.455-.466 0-.83-.151-1.094-.455-.195-.226-.292-.577-.292-1.054V3.235c0-.476.097-.824.292-1.045.264-.303.628-.455 1.094-.455.472 0 .84.152 1.104.455.194.22.291.569.291 1.045Zm3.49-1.446v4.455h-.948v-.491c-.368.369-.726.553-1.073.553-.32 0-.524-.11-.614-.33-.056-.143-.084-.366-.084-.67V1.788h.948v3.277c0 .197.004.3.01.313.021.13.094.196.22.196.187 0 .385-.128.593-.384V1.788h.948Z" fill="#fff"/></svg>