<?xml version="1.0" encoding="UTF-8"?>
<!DOCTYPE svg PUBLIC "-//W3C//DTD SVG 1.1//EN" "http://www.w3.org/Graphics/SVG/1.1/DTD/svg11.dtd">
<!-- Creator: CorelDRAW 2020 (64-Bit) -->
<svg xmlns="http://www.w3.org/2000/svg" xml:space="preserve" width="80px" height="80px" version="1.1" style="shape-rendering:geometricPrecision; text-rendering:geometricPrecision; image-rendering:optimizeQuality; fill-rule:evenodd; clip-rule:evenodd"
viewBox="0 0 80 80"
 xmlns:xlink="http://www.w3.org/1999/xlink"
 xmlns:xodm="http://www.corel.com/coreldraw/odm/2003">
 <defs>
  <style type="text/css">
   <![CDATA[
    .fil0 {fill:none}
    .fil1 {fill:#3D7BBD;fill-rule:nonzero}
   ]]>
  </style>
 </defs>
 <g id="Layer_x0020_1">
  <metadata id="CorelCorpID_0Corel-Layer"/>
  <rect class="fil0" width="80" height="80"/>
  <g id="windows-10-icon-seeklogo.eps">
   <path class="fil1" d="M36.71 6.87c14.15,-2.16 28.31,-4.2 42.48,-6.17 0.01,12.42 0,24.83 0.01,37.24 -14.16,0.06 -28.32,0.27 -42.49,0.32 0,-10.47 0,-20.93 0,-31.39l0 0z"/>
   <path class="fil1" d="M0.8 11.88c10.65,-1.64 21.34,-3.06 32.04,-4.4 0,10.3 0,20.59 0.01,30.89 -10.68,-0.01 -21.37,0.15 -32.05,0.12l0 -26.61z"/>
   <path class="fil1" d="M0.8 41.73c10.68,-0.03 21.35,0.14 32.03,0.12 0,10.32 0.02,20.65 0.01,30.98 -10.67,-1.58 -21.36,-2.97 -32.04,-4.41l0 -26.69z"/>
   <path class="fil1" d="M36.65 42.15c14.19,0 28.36,0 42.54,0 0.02,12.38 0,24.76 0,37.15 -14.14,-2.12 -28.31,-4.09 -42.48,-6.01 -0.01,-10.38 -0.04,-20.76 -0.06,-31.14z"/>
  </g>
 </g>
</svg>
